<?xml version="1.0" standalone="no"?>
<!DOCTYPE svg PUBLIC "-//W3C//DTD SVG 1.1//EN" "http://www.w3.org/Graphics/SVG/1.1/DTD/svg11.dtd" >
<svg xmlns="http://www.w3.org/2000/svg">
<metadata></metadata>
<defs>
<font id="larish_neueregular" horiz-adv-x="1548" >
<font-face units-per-em="2048" ascent="1638" descent="-410" />
<missing-glyph horiz-adv-x="532" />
<glyph horiz-adv-x="2048" />
<glyph horiz-adv-x="2048" />
<glyph unicode="&#xd;" horiz-adv-x="2048" />
<glyph unicode=" "  horiz-adv-x="532" />
<glyph unicode="&#x09;" horiz-adv-x="532" />
<glyph unicode="&#xa0;" horiz-adv-x="532" />
<glyph unicode="!" horiz-adv-x="600" d="M133 158q0 -66 49 -114t117 -48t117 48t49 114t-49 113.5t-117 47.5t-117 -47.5t-49 -113.5zM135 1354q0 -9 6.5 -67.5t18.5 -142t24 -134.5q17 -88 45.5 -300t36.5 -288h70q46 450 82 588q10 52 22.5 134.5t19.5 142t7 67.5q0 66 -49 114t-117 48t-117 -48t-49 -114z " />
<glyph unicode="&#x22;" horiz-adv-x="804" d="M82 1350q0 -23 45 -226q67 -332 74 -385h61q27 187 74 385l22 105v196q-41 66 -127 66q-63 0 -106 -40.5t-43 -100.5zM446 1229l23 -105q67 -333 74 -385h61q27 187 74 385q45 203 45 226q0 60 -43.5 100.5t-106.5 40.5q-86 0 -127 -66v-196z" />
<glyph unicode="#" horiz-adv-x="1464" d="M82 328h237l-69 -328h147l70 328h344l-70 -328h148l69 328h287v131h-258l115 522h280v131h-252l82 379h-147l-82 -379h-344l82 379h-148l-81 -379h-273v-131h244l-115 -522h-266v-131zM496 459l114 522h344l-114 -522h-344z" />
<glyph unicode="$" horiz-adv-x="1243" d="M104 1126q-20 -292 267 -444l100 -53v-484q-98 53 -178 140.5t-80 126.5h-78v-412h74q77 43 141 41q44 -2 121 -21v-231h96v207q47 -12 90 -12v-195h97v203q171 30 278 144t107 282q3 294 -289 411q-16 7 -48 20.5t-48 20.5v461q76 -57 138 -138.5t62 -105.5h78v404h-71 q-50 -33 -105 -33q-36 0 -102 15v167h-97v-141q-26 6 -69 10h-21v131h-96v-135q-160 -20 -260 -123t-107 -256zM322 1221q0 71 39 116.5t110 63.5v-395q-60 36 -104.5 94.5t-44.5 120.5zM567 102v482l90 -43v-451h-12q-37 0 -78 12zM567 956v453q43 -3 90 -23v-473zM754 102 v398q37 -18 61.5 -33t51 -40t40 -59t13.5 -77q-3 -148 -166 -189z" />
<glyph unicode="%" horiz-adv-x="1589" d="M72 1161q0 -111 51 -196.5t129.5 -128.5t169.5 -43q141 0 244.5 101t103.5 267q0 80 -30 148.5t-79 113.5t-111 70t-128 25q-65 0 -127.5 -25t-112 -70t-80 -113.5t-30.5 -148.5zM209 0l1008 1491h151l-1006 -1491h-153zM268 1077q-3 88 0 176q5 87 41 126.5t113 39.5 q63 0 106 -46.5t47 -129.5q3 -89 0 -178q-6 -168 -151 -168q-66 0 -109 49t-47 131zM819 346q0 -111 51 -197t129.5 -129t169.5 -43q141 0 245 101.5t104 267.5q0 106 -51.5 189t-130 125t-167.5 42q-88 0 -167 -42t-131 -125t-52 -189zM1016 262q-3 88 0 176 q5 87 40.5 126.5t112.5 39.5q64 0 107 -47t47 -129q3 -89 0 -178q-6 -168 -152 -168q-66 0 -108 49t-47 131z" />
<glyph unicode="&#x26;" horiz-adv-x="1724" d="M92 373q0 -178 114 -288t296 -105q119 4 215.5 57.5t189.5 146.5l25 -28q56 -60 137.5 -108t181.5 -48h183v76h-56q-25 15 -65.5 53t-75.5 82l-139 170q34 37 157 170t172 186q38 38 119 103t101 65h57v76h-688v-76h131q19 0 61.5 -64t42.5 -100q-7 -21 -24 -49 t-46 -62.5t-48.5 -57t-54 -60t-40.5 -43.5l-295 397l43 29q96 65 167 157.5t71 194.5q0 95 -52.5 163t-130 97.5t-165.5 26.5q-145 -4 -250.5 -87.5t-122.5 -205.5q-16 -100 19.5 -202.5t87.5 -170.5l36 -55q-56 -29 -102.5 -58.5t-95 -71.5t-81.5 -86t-54 -102.5 t-21 -121.5zM334 358q-46 107 9.5 211t162.5 162l334 -459l-6 -6q-51 -51 -121.5 -79.5t-148.5 -21.5t-134 60q-61 58 -96 133zM426 1245q0 80 62.5 136.5t154.5 56.5q87 0 144 -55.5t57 -141.5q0 -88 -36.5 -156t-80.5 -106l-41 -33l-63 98q-18 26 -45.5 44t-52.5 27.5 t-48 23t-37 39.5t-14 67z" />
<glyph unicode="'" horiz-adv-x="483" d="M92 1346q0 -24 45 -224q65 -328 74 -387h61q26 183 74 387q45 200 45 224q0 60 -43.5 102.5t-105.5 42.5q-63 0 -106.5 -42.5t-43.5 -102.5z" />
<glyph unicode="(" horiz-adv-x="759" d="M123 575q0 -153 39.5 -305t99 -267.5t133.5 -218.5t136.5 -166.5t115.5 -102.5l72 73q-42 44 -57.5 61t-53.5 62.5t-54.5 72.5t-47 80.5t-45 98.5t-34.5 114t-29 140t-16 163t-7 195q0 171 19 310.5t47.5 234.5t77.5 181t92 138.5t108 119.5l-72 73q-53 -39 -115.5 -103 t-136.5 -167t-133 -218.5t-99 -266.5t-40 -302z" />
<glyph unicode=")" horiz-adv-x="759" d="M41 -412l72 -73q53 39 115.5 102.5t136.5 166.5t133.5 218.5t99 267.5t39.5 305q0 151 -40 302t-99 266.5t-133 218.5t-136.5 167t-115.5 103l-72 -73q65 -67 108 -119.5t92 -138.5t77.5 -181t47.5 -234.5t19 -310.5q0 -103 -7 -195t-16 -163t-29 -140t-34.5 -114 t-45 -98.5t-47 -80.5t-54.5 -72.5t-53.5 -62.5t-57.5 -61z" />
<glyph unicode="*" horiz-adv-x="983" d="M72 1155l73 -74q47 5 158 30t158 32q-37 -29 -138.5 -92.5t-132.5 -89.5v-103h115q31 39 85 130t81 128q-7 -40 -32.5 -152t-30.5 -153l84 -82l79 82q-5 41 -30.5 153t-32.5 152q20 -28 79.5 -124.5t90.5 -133.5h115v103q-39 33 -139 95t-134 87q29 -5 147 -32t171 -30 l73 74l-73 74q-45 -5 -156.5 -31t-161.5 -31q38 30 137.5 91t135.5 92v102h-115q-35 -42 -89 -130.5t-79 -123.5q7 39 31.5 148.5t29.5 152.5l-79 80l-80 -80q4 -41 30 -163.5t29 -137.5q-22 30 -78.5 124.5t-87.5 129.5h-115v-102q32 -24 129.5 -85.5t141.5 -97.5 q-34 6 -150 32.5t-166 29.5z" />
<glyph unicode="+" horiz-adv-x="1302" d="M94 514h475v-487h166v487h473v154h-473v475h-166v-475h-475v-154z" />
<glyph unicode="," horiz-adv-x="593" d="M41 -152l2 -88q49 -5 103 1.5t111.5 29t102.5 59t73 98t26 138.5v72q0 66 -49.5 115t-116.5 49t-116.5 -49t-49.5 -115q0 -55 37.5 -99.5t93.5 -58.5h78q0 -75 -93 -120t-202 -32z" />
<glyph unicode="-" horiz-adv-x="702" d="M51 440h600v236h-600v-236z" />
<glyph unicode="." horiz-adv-x="577" d="M123 162q0 -66 49 -114t117 -48t117 48t49 114t-49 114t-117 48t-117 -48t-49 -114z" />
<glyph unicode="/" horiz-adv-x="1130" d="M61 -307l129 -62l869 1889l-127 59z" />
<glyph unicode="0" horiz-adv-x="1288" d="M61 743q0 -115 26.5 -227t78 -209t121 -171t162 -116.5t194.5 -42.5q129 0 240.5 68.5t185.5 180t116 252t42 286.5q0 141 -43 276.5t-117.5 241.5t-186 171t-239.5 65q-129 0 -240 -67.5t-184 -177.5t-114.5 -248t-41.5 -282zM364 732.5q0 166.5 5 260.5 q4 203 82.5 306.5t191.5 103.5q136 0 201 -87t71 -274q5 -95 5 -261.5t-5 -260.5q-7 -206 -83.5 -314t-188.5 -108q-135 0 -201.5 92.5t-72.5 280.5q-5 95 -5 261.5z" />
<glyph unicode="1" horiz-adv-x="987" d="M143 1159h125q19 0 55.5 -37.5t36.5 -60.5v-862q0 -27 -46.5 -75t-67.5 -48h-84v-76h680v76h-78q-23 0 -68 48.5t-45 74.5v1314l-164 -61q-54 -54 -155.5 -123t-188.5 -98v-72z" />
<glyph unicode="2" horiz-adv-x="1091" d="M20 1190l78 -78q170 211 328 211q121 0 198 -73.5t85 -190.5q6 -81 -30.5 -160.5t-98.5 -144.5q-97 -100 -170.5 -179t-155.5 -175t-138 -180t-81 -150v-70h878l127 322h-79q0 -18 -58.5 -58.5t-79.5 -40.5h-551q52 87 412 373q55 43 91 73.5t83 79.5t75 93.5t48 103 t20 119.5q0 215 -125.5 336t-345.5 117q-82 -2 -160.5 -32t-143 -80t-114 -102.5t-92.5 -113.5z" />
<glyph unicode="3" horiz-adv-x="1150" d="M23 1276l75 -88q75 62 167 105.5t171 43.5q93 0 152 -56t59 -146q0 -116 -143 -205l-217 -80v-76q135 19 239 2t167 -83t63 -171q0 -81 -33.5 -152.5t-89.5 -122t-125.5 -90.5t-144.5 -64t-142.5 -36t-124.5 -12l21 -125q69 0 150 12t171 38t176.5 63.5t165 91t138 116.5 t94.5 146t35 174q0 73 -26.5 132.5t-68.5 97.5t-97 64t-110.5 36t-109.5 8q54 23 99.5 51.5t90.5 68.5t71 94.5t26 115.5q0 136 -102.5 212.5t-250.5 76.5q-151 0 -301 -71t-245 -171z" />
<glyph unicode="4" horiz-adv-x="1224" d="M47 369h600v-170q0 -27 -47 -75t-68 -48h-69v-76h624v76h-36q-24 0 -68.5 48t-44.5 75v170h221v145h-221v999q-31 -11 -84 -32q-18 -8 -82.5 -35t-101.5 -45q-10 -15 -66 -106t-84 -135.5t-91.5 -142t-113.5 -171t-122.5 -174.5t-145.5 -197v-106zM225 514 q205 271 418 627h10l-2 -627h-426z" />
<glyph unicode="5" horiz-adv-x="1140" d="M92 782l84 -47q15 7 50 24.5t48.5 24t42.5 20t43 19t37.5 14.5t38.5 12.5t33.5 7t34.5 3.5q150 4 232 -83.5t65 -229.5q-9 -85 -64 -162.5t-132.5 -131.5t-167 -95t-171 -60.5t-141.5 -19.5l14 -127q69 0 150.5 14.5t169.5 44t173.5 71t162.5 99.5t136.5 125t96 152 t39.5 176q4 206 -119.5 313t-326.5 107q-55 0 -109.5 -13t-113.5 -42t-91 -47.5t-94 -57.5l43 375q399 -3 537 4q40 1 101 4.5t67 3.5v231q-60 -7 -142 -10q-173 -10 -553 -10h-108z" />
<glyph unicode="6" horiz-adv-x="1251" d="M102 721q0 -120 25.5 -232t75 -204.5t117.5 -161.5t158 -107.5t192 -38.5q148 0 265.5 72t181 192.5t63.5 264.5q0 117 -38.5 214t-103 158.5t-145 95.5t-166.5 34q-132 0 -228.5 -56.5t-138.5 -124.5q-6 100 35 206t115 191.5t185.5 139t234.5 49.5l-35 117 q-153 4 -296.5 -54t-253.5 -162.5t-176.5 -259.5t-66.5 -333zM397 610q0 95 55.5 164.5t165.5 69.5q125 0 212.5 -132t87.5 -323q0 -128 -58.5 -200t-163.5 -72q-81 0 -150.5 70t-109 183.5t-39.5 239.5z" />
<glyph unicode="7" horiz-adv-x="1042" d="M10 1167h84q29 29 53 50q61 49 78 49q326 -8 488 2q2 0 133 8q-33 -45 -60 -82.5t-108.5 -163t-156 -255.5t-183 -340t-209.5 -435h305q17 113 233.5 638t272.5 622l92 161l-41 70h-866z" />
<glyph unicode="8" horiz-adv-x="1230" d="M61 377q0 -83 34 -151.5t88.5 -113.5t126.5 -76.5t146 -45t148 -13.5q144 0 273 55t210.5 156t81.5 224q0 72 -19.5 131.5t-57 105t-80 78.5t-99.5 64l-94 55q97 43 175.5 130.5t78.5 188.5q0 68 -25.5 126t-69.5 99t-102.5 70.5t-124 43.5t-133.5 14 q-126 0 -237.5 -43.5t-184.5 -131t-73 -200.5q0 -55 20.5 -108.5t48 -91.5t71 -78.5t72 -62t68.5 -48.5q-47 -21 -84.5 -40.5t-88.5 -55t-85.5 -73.5t-59 -93t-24.5 -115zM274 377q0 51 15.5 94t35 70.5t57.5 56.5t62 42.5t70 37.5l104 -62q17 -10 60.5 -32.5t70 -36.5 t63.5 -39.5t59 -48t39 -53.5t18 -64q3 -79 -42.5 -135t-118 -81.5t-161.5 -25.5q-76 0 -151 32.5t-128 97.5t-53 147zM362 1231q0 69 68.5 124.5t159.5 55.5q119 0 200.5 -78t81.5 -196q-1 -59 -48.5 -123t-114.5 -103l-39 19q-48 23 -85.5 43.5t-81.5 51t-73 60.5 t-48.5 68.5t-19.5 77.5z" />
<glyph unicode="9" horiz-adv-x="1230" d="M74 1030q6 -126 45.5 -225.5t102.5 -161t141 -93.5t165 -32q63 0 121.5 18.5t100 47.5t69.5 56.5t47 55.5q5 -88 -26.5 -177.5t-88 -163t-127.5 -131.5t-150.5 -90t-151.5 -32l28 -125q109 0 220 37.5t210.5 112t177.5 174.5t124 235.5t46 284.5q0 196 -74.5 355.5 t-207 250.5t-295.5 91q-218 0 -353.5 -135.5t-123.5 -352.5zM307 1165q0 103 52 167.5t165 64.5q78 0 150 -63.5t117 -171t45 -226.5q0 -46 -10 -85.5t-32 -76t-63 -58.5t-98 -24q-82 -3 -157.5 62t-122 176t-46.5 235z" />
<glyph unicode=":" horiz-adv-x="557" d="M113 797q0 -66 49 -114t117 -48q67 0 116 48t49 114t-48.5 113.5t-116.5 47.5t-117 -47.5t-49 -113.5zM150 147q0 -54 37.5 -90.5t91.5 -36.5t91.5 36.5t37.5 90.5t-37.5 90.5t-91.5 36.5t-91.5 -36.5t-37.5 -90.5z" />
<glyph unicode=";" horiz-adv-x="589" d="M41 -152q109 -13 202 32t93 120h-82q-56 14 -93.5 58.5t-37.5 99.5q0 66 49.5 116t116.5 50t116.5 -50t49.5 -116v-72q2 -77 -26 -138.5t-72.5 -98t-101.5 -59t-111 -29t-103 -1.5v88zM162 799q0 -54 37.5 -90.5t91.5 -36.5t91.5 36.5t37.5 90.5t-37.5 90.5t-91.5 36.5 t-91.5 -36.5t-37.5 -90.5z" />
<glyph unicode="&#x3c;" horiz-adv-x="1024" d="M61 561l795 -561v193l-604 417l711 432v183l-902 -559v-105z" />
<glyph unicode="=" horiz-adv-x="1310" d="M98 338h1114v158h-1114v-158zM98 690h1114v158h-1114v-158z" />
<glyph unicode="&#x3e;" horiz-adv-x="1024" d="M61 1042l711 -432l-604 -417v-193l795 561v105l-902 559v-183z" />
<glyph unicode="?" horiz-adv-x="897" d="M102 1073h107v111q0 58 40.5 99.5t106.5 41.5q65 0 103.5 -42.5t38.5 -104.5q0 -50 -26 -108.5t-62.5 -113.5l-73 -110t-62.5 -115.5t-26 -112.5q0 -98 57 -155t156 -57q81 0 147 51t66 137v111h-90v-103q0 -31 -21 -50.5t-51 -19.5q-31 0 -52.5 20t-21.5 52q0 42 18 83 t46.5 77t63.5 72.5t70 76t63.5 81t46.5 94t18 108.5q0 142 -90.5 229.5t-233.5 87.5q-155 0 -246.5 -87t-91.5 -238v-115zM326 127q0 -54 37.5 -90.5t91.5 -36.5t91.5 36.5t37.5 90.5t-37.5 90.5t-91.5 36.5t-91.5 -36.5t-37.5 -90.5z" />
<glyph unicode="@" horiz-adv-x="1783" d="M92 713q0 -183 62 -341.5t173.5 -272.5t274 -179t354.5 -65h443v122h-449q-214 0 -380 93.5t-256.5 261t-90.5 381.5q0 196 92.5 355t250 248t347.5 89q186 0 336.5 -89t236 -247.5t85.5 -355.5q0 -177 -62 -285.5t-161 -108.5q-20 0 -50 26.5t-30 49.5v504 q0 124 -106.5 194t-276.5 70q-49 2 -103.5 -8.5t-109 -36t-95.5 -63t-62.5 -95t-12.5 -126.5l43 -37q84 -2 129 39.5t26 117.5q-9 40 14.5 69.5t60.5 41.5t77 12q63 0 121.5 -44.5t58.5 -117.5v-165l-233 -45q-34 -7 -57.5 -13t-57 -17t-57 -23.5t-49 -32t-41 -43t-25.5 -56 t-10 -71.5q0 -117 74.5 -189t193.5 -72q78 0 163 59t124 118q24 -73 88.5 -124t138.5 -51q131 0 227 69.5t143.5 187t47.5 266.5q0 227 -100 411t-280.5 289t-408.5 105q-172 0 -324.5 -61.5t-261.5 -168t-172 -256.5t-63 -319zM713 481q0 58 41.5 95.5t103.5 50.5l172 37 v-181q-8 -39 -65 -88t-105 -49q-67 0 -107 35t-40 100z" />
<glyph unicode="A" d="M25 0h460v76h-39q-22 0 -59.5 53t-42.5 82l82 221h473l92 -223q0 -25 -43.5 -79t-66.5 -54h-37v-76h680v76h-29q-20 0 -76.5 51.5t-77.5 81.5l-536 1304l-123 -67l-467 -1235q-15 -28 -79.5 -81.5t-84.5 -53.5h-26v-76zM459 535l192 532h8l201 -532h-401z" />
<glyph unicode="B" horiz-adv-x="1462" d="M82 0h637q198 0 346.5 45t237 142.5t87.5 236.5q0 81 -28.5 147.5t-73 107.5t-101.5 69.5t-107.5 40.5t-96.5 14l145 37q76 39 120 109.5t44 170.5q0 79 -33 142.5t-88.5 105.5t-133 70.5t-162.5 40.5t-181 12h-612v-76h33q19 0 65.5 -50.5t46.5 -70.5v-1095 q0 -20 -47.5 -71.5t-64.5 -51.5h-33v-76zM555 827v500q0 19 24.5 44.5t43.5 25.5h94q95 0 174.5 -69.5t83.5 -172.5q2 -26 1.5 -51.5t-1.5 -50.5q-12 -193 -234 -226h-186zM557 170v561h205q69 0 132 -27t108.5 -85.5t48.5 -137.5q2 -30 1.5 -58.5t-1.5 -55.5 q-7 -119 -96 -192t-218 -73h-112q-17 0 -42.5 25.5t-25.5 42.5z" />
<glyph unicode="C" horiz-adv-x="1552" d="M82 754q0 -124 36.5 -241.5t105.5 -215t163 -171.5q93 -72 215 -112q113 -37 237 -37h19q123 2 229 35.5t186 91t138.5 129t99.5 156.5h-129q-84 -128 -207 -193t-272 -65q-189 0 -318 122t-141 314q-7 121 -7 233q0 75 3 146q6 127 40.5 221t90 146.5t121 77t142.5 24.5 q74 0 147 -37.5t126.5 -93.5t96 -117.5t64.5 -111.5t22 -74h88v510h-82q-27 -41 -92 -41q-58 0 -173 32.5t-200 35.5q-17 1 -33 1q-198 1 -356 -89q-172 -96 -266 -273t-94 -403z" />
<glyph unicode="D" d="M82 0h608q115 0 228.5 35t211.5 102t173.5 157t119 208t43.5 248q0 135 -45.5 254.5t-122.5 207t-177 151.5t-211.5 96t-223.5 32h-604v-76h33q20 0 66 -47t46 -72v-1101q0 -28 -44 -73.5t-68 -45.5h-33v-76zM555 201v1091q0 25 34.5 64t57.5 39h47q92 0 165.5 -25 t132 -79t91.5 -148t37 -223v-347q-3 -104 -26 -185t-61 -134t-91 -88t-112 -49.5t-128 -14.5h-49q-20 0 -59 38.5t-39 60.5z" />
<glyph unicode="E" horiz-adv-x="1443" d="M82 1415h35q20 0 66 -49t46 -74v-1099q0 -25 -42 -71t-66 -46h-37v-76h1214l95 487h-82q0 -22 -84 -116.5t-184 -181.5t-136 -87h-315q-8 0 -21.5 17.5t-13.5 27.5v566h160q24 0 95 -66t71 -90v-43h86v490h-86v-37q0 -23 -71 -88.5t-95 -65.5h-160v539q0 11 13.5 26 t23.5 15h321q16 0 78.5 -68.5t119 -145.5t56.5 -96h76v408h-1163v-76z" />
<glyph unicode="F" horiz-adv-x="1312" d="M82 0h661v76h-77q-24 0 -66.5 49t-42.5 74v491h236q25 0 96.5 -65.5t71.5 -89.5v-70h86v516h-86v-39q0 -23 -71 -87t-95 -64h-238v561q0 11 13.5 26t23.5 15h332q26 0 153 -148.5t127 -179.5h76v426h-1200v-76h35q20 0 66 -48.5t46 -74.5v-1093q0 -25 -45 -74t-67 -49 h-35v-76z" />
<glyph unicode="G" horiz-adv-x="1660" d="M84 762q0 -169 55 -314.5t153.5 -249t240.5 -162.5t309 -59h28q120 0 227 52.5t169 136.5l172 -166h18v479q0 21 45 70t60 49h38v78h-653v-78h103q14 0 58 -51t44 -70v-219q-20 -56 -97.5 -100.5t-158.5 -44.5h-57q-163 0 -271.5 124t-120.5 320q-8 86 -8 192q0 93 6 201 q5 101 32 181.5t68 132.5t96 86t112.5 48.5t121.5 14.5q72 0 144.5 -36.5t126 -90t96 -112.5t64.5 -107t22 -70h80v494h-82q-26 -35 -94 -35q-57 0 -169.5 29.5t-193.5 32.5h-23q-156 0 -292 -50q-146 -55 -249 -154.5t-161.5 -242t-58.5 -309.5z" />
<glyph unicode="H" horiz-adv-x="1660" d="M82 0h635v76h-53q-20 0 -66.5 49.5t-46.5 73.5v499h563v-499q0 -24 -46.5 -73.5t-66.5 -49.5h-55v-76h629v76h-31q-21 0 -64.5 49.5t-43.5 73.5v1093q0 20 46.5 71.5t65.5 51.5h31v76h-625v-76h39q20 0 70.5 -51.5t50.5 -71.5v-481h-563v481q0 20 48 71.5t67 51.5h43v76 h-627v-76h29q13 0 62.5 -52t49.5 -71v-1093q0 -24 -43.5 -73.5t-64.5 -49.5h-33v-76z" />
<glyph unicode="I" horiz-adv-x="856" d="M92 1415h62q20 0 67 -50t47 -73v-1093q0 -25 -45 -74t-67 -49h-62v-76h664v76h-60q-23 0 -66.5 49t-43.5 74v1093q0 23 47 73t70 50h59v76h-672v-76z" />
<glyph unicode="J" horiz-adv-x="925" d="M33 233q0 -118 76 -187t204 -69q180 0 291 119.5t111 309.5v886q0 23 44 74t64 51h31v74h-668v-74h88q19 0 66 -51t47 -74v-1042q0 -50 -36 -86.5t-87 -36.5q-47 0 -78.5 30t-31.5 72v47h-121v-43z" />
<glyph unicode="K" horiz-adv-x="1595" d="M82 1415h31q19 0 65.5 -49.5t46.5 -73.5v-1093q0 -23 -44.5 -73t-63.5 -50h-33v-76h614v76h-36q-22 0 -65.5 50t-43.5 73v288l168 191l313 -477q4 -7 4 -16q0 -21 -22 -57q-30 -52 -55 -52h-39v-76h657v76h-23q-20 0 -78.5 52t-78.5 81l-473 702l313 355 q15 18 111.5 83.5t117.5 65.5h37v76h-563v-76h45q14 0 42.5 -29.5t47.5 -64t8 -47.5l-524 -608h-10v626q0 23 45.5 73t67.5 50h45v76h-627v-76z" />
<glyph unicode="L" horiz-adv-x="1388" d="M82 0h1190l108 514h-86q0 -17 -87.5 -116t-193 -193t-143.5 -94h-245q-18 0 -42 24.5t-24 44.5v1112q0 25 48 74t69 49h92v76h-686v-76h33q21 0 67.5 -49t46.5 -74v-1095q0 -24 -43.5 -72.5t-64.5 -48.5h-39v-76z" />
<glyph unicode="M" horiz-adv-x="2019" d="M82 0h436v76h-53q-18 0 -65.5 51.5t-47.5 71.5v987h6l560 -1241l540 1241h6v-987q0 -20 -46.5 -71.5t-63.5 -51.5h-49v-76h628v76h-32q-19 0 -64 51.5t-45 71.5v1093q0 20 47 71.5t66 51.5h32v76h-479l-438 -1012h-8l-443 1012h-487v-76h35q18 0 65 -50.5t47 -72.5v-1093 q0 -20 -46 -71.5t-62 -51.5h-39v-76z" />
<glyph unicode="N" horiz-adv-x="1662" d="M82 0h496v76h-56q-21 0 -82 65.5t-61 89.5v977h6l1040 -1245v1313q0 24 51 81.5t72 57.5h43v76h-463v-76h52q19 0 72 -57.5t53 -81.5v-690h-11l-739 905h-449v-76h33q16 0 65.5 -56t49.5 -79v-1049q0 -24 -61 -89.5t-82 -65.5h-29v-76z" />
<glyph unicode="O" horiz-adv-x="1732" d="M82 752q0 -161 59.5 -304.5t163 -247t249.5 -163.5t312 -60q222 0 402 102.5t281.5 280.5t102.5 394q0 155 -60.5 295.5t-164 243.5t-250 164t-311.5 61t-311.5 -61t-249.5 -164t-163 -244t-60 -297zM436 510q-6 112 -6 224t6 222q12 197 134.5 325t295.5 128 q191 0 304.5 -111t123.5 -313q6 -114 6 -225.5t-6 -220.5q-12 -194 -136.5 -317.5t-293.5 -123.5q-192 0 -305 105.5t-123 306.5z" />
<glyph unicode="P" horiz-adv-x="1390" d="M82 1415h33q19 0 65.5 -49t46.5 -72v-1097q0 -24 -44.5 -72.5t-63.5 -48.5h-31v-76h664v76h-82q-20 0 -65.5 49t-45.5 72v370h129q95 0 186 18t174 56t145 93t99 133.5t37 172.5q0 92 -35.5 169t-95 128t-139 86.5t-164.5 51.5t-174 16h-639v-76zM555 676v651 q0 19 24.5 44.5t43.5 25.5h106q95 0 179 -84.5t91 -192.5q3 -46 3 -92.5t-3 -93.5q-7 -103 -96 -180.5t-194 -77.5h-154z" />
<glyph unicode="Q" horiz-adv-x="1701" d="M72 764q0 -216 98.5 -396t276.5 -285.5t399 -105.5q84 0 133 -49l319 -303h363l-375 352l-127 68q209 93 336 281t127 424q0 155 -58.5 296t-160.5 245t-247 165.5t-310 61.5t-309.5 -59t-246 -160t-160 -240t-58.5 -295zM420 512q-6 112 -6 224t6 222q12 195 134.5 323 t289.5 128q190 0 301 -109.5t121 -312.5q6 -113 6 -225t-6 -221q-12 -193 -133.5 -316t-290.5 -123q-192 0 -302 104.5t-120 305.5z" />
<glyph unicode="R" horiz-adv-x="1560" d="M82 0h641v76h-61q-22 0 -67.5 50t-45.5 73v467h147q6 0 12.5 -2.5t14 -9t14 -11.5t16 -15.5t14.5 -16.5t15 -19t13.5 -17.5t13 -17.5t10.5 -14q23 -38 76 -128.5t84.5 -144t72 -116t66.5 -93.5q5 -7 17.5 -20.5t17.5 -20.5q3 -3 8 -10t8 -10h375v66q-17 0 -33 20 q-67 79 -183 244.5t-238 355.5l-185 37q47 7 99 26t106.5 51.5t97 74t70 99.5t27.5 122q0 109 -49 188.5t-136 123t-191 63.5t-231 20h-616v-76h27q19 0 65.5 -49t46.5 -72v-1095q0 -23 -44 -73t-64 -50h-31v-76zM549 770v559q0 19 24 44.5t43 25.5h93q98 0 177.5 -68.5 t86.5 -177.5q4 -38 4 -75t-4 -74q-4 -55 -30 -99t-65.5 -70.5t-80.5 -42t-84 -22.5h-164z" />
<glyph unicode="S" horiz-adv-x="1243" d="M94 1128q-1 -18 -1 -36q0 -128 64 -228q73 -114 214 -188q209 -107 372 -168q40 -15 69 -30.5t60.5 -40.5t48.5 -62t17 -84q0 -92 -74 -145q-68 -48 -172 -48h-20q-72 2 -159.5 42.5t-155 93.5t-114 106t-46.5 80h-78v-420h76q50 33 114 33q60 0 174.5 -23t167.5 -26 q19 -1 38 -1q119 -1 220 43q117 50 187 151t73 231v18q0 299 -295 418q-221 90 -374 166q-70 35 -123 91.5t-53 123.5q0 91 64 140q58 44 152 44h19q71 0 148.5 -42t133.5 -98.5t93 -111.5t37 -84h80v418h-74q-42 -31 -105 -31q-45 0 -138.5 23t-139.5 26q-22 1 -43 1 q-184 0 -307 -94q-138 -106 -150 -288z" />
<glyph unicode="T" horiz-adv-x="1480" d="M12 1004h80q21 36 76.5 120.5t126.5 176.5t94 92l184 -2v-1192q0 -20 -47.5 -71.5t-64.5 -51.5h-37v-76h627v76h-37q-17 0 -64 51.5t-47 71.5v1192l189 2q23 0 94 -92t126.5 -176.5t76.5 -120.5h79q-8 51 -20 161q-21 202 -21 353h-77q-53 -25 -258 -25l-189 -2h-330 l-182 2q-218 0 -260 25h-78q0 -161 -20 -353q-10 -89 -21 -161z" />
<glyph unicode="U" horiz-adv-x="1642" d="M61 1415h39q14 0 64.5 -57t50.5 -74v-721q0 -164 86 -299.5t226.5 -211t301.5 -75.5q266 0 427 147.5t161 397.5v735q0 20 57 89t74 69h33v76h-475v-76h51q17 0 77 -69t60 -89v-747q0 -157 -98.5 -260t-271.5 -103q-169 0 -275 105.5t-106 284.5v747q0 17 50 74t64 57h54 v76h-650v-76z" />
<glyph unicode="V" horiz-adv-x="1527" d="M20 1415h27q19 0 76.5 -64.5t77.5 -97.5l524 -1273l127 77l453 1194q21 35 89.5 99.5t86.5 64.5h26v76h-489v-76h39q24 0 71.5 -66.5t47.5 -95.5l-302 -821h-8l-315 823q0 32 41.5 96t64.5 64h45v76h-682v-76z" />
<glyph unicode="W" horiz-adv-x="2183" d="M25 1415h24q19 0 83.5 -73t74.5 -101l455 -1259l124 77l291 998h13l354 -1075l127 77l377 1184q13 26 88.5 99t93.5 73h29v76h-506v-76h53q19 0 67 -70.5t48 -99.5l-224 -741h-6l-344 1014l-239 -269l-211 -745h-6l-248 741q0 30 42.5 100t63.5 70h47v76h-671v-76z" />
<glyph unicode="X" horiz-adv-x="1568" d="M41 0h553v76h-66q-23 0 -62.5 66t-39.5 96l289 360h8l250 -362q0 -27 -36.5 -93.5t-55.5 -66.5h-70v-76h737v76h-28q-19 0 -82.5 66.5t-87.5 101.5l-430 606l327 407q35 40 115.5 99t99.5 59h33v76h-537v-76h33q18 0 54 -63t36 -92l-239 -299h-8l-205 299q0 27 33 91 t51 64h37v76h-709v-76h31q21 0 95 -69.5t89 -94.5l381 -540l-377 -467q-26 -36 -98.5 -102t-91.5 -66h-29v-76z" />
<glyph unicode="Y" horiz-adv-x="1449" d="M10 1415h25q22 0 87.5 -68t82.5 -96l354 -626v-426q0 -20 -44.5 -71.5t-61.5 -51.5h-41v-76h616v76h-39q-17 0 -61.5 51.5t-44.5 71.5v426l348 626q12 26 88 93t100 71h21v76h-490v-76h58q20 0 53.5 -64.5t38.5 -97.5l-273 -493h-10l-264 500q5 33 41 94t55 61h62v76 h-701v-76z" />
<glyph unicode="Z" horiz-adv-x="1316" d="M41 0h1143l73 514h-88q0 -19 -92 -119.5t-199.5 -195.5t-142.5 -95h-317l839 1387h-1107l-39 -414h79q0 28 127 171t156 143h363l-795 -1307v-84z" />
<glyph unicode="[" horiz-adv-x="776" d="M266 -530h510v86h-184q-19 0 -53.5 35.5t-34.5 54.5v1841q0 20 34.5 55t53.5 35h184v86h-510v-2193z" />
<glyph unicode="\" horiz-adv-x="1120" d="M61 1520l869 -1889l129 62l-871 1886z" />
<glyph unicode="]" horiz-adv-x="778" d="M0 -444v-86h510v2193h-510v-86h184q19 0 53.5 -35t34.5 -55v-1841q0 -19 -34.5 -54.5t-53.5 -35.5h-184z" />
<glyph unicode="^" horiz-adv-x="1392" d="M82 590h180l432 702l436 -702h181l-561 901h-107z" />
<glyph unicode="_" horiz-adv-x="1144" d="M0 0v-145h1145v145h-1145z" />
<glyph unicode="`" horiz-adv-x="946" d="M143 1430l346 -330h78l-141 330h-283z" />
<glyph unicode="a" horiz-adv-x="1132" d="M80 657l43 -45q19 -3 36 -3q53 0 92 28q45 33 45 87q0 7 -1 15q-1 9 -1 18q0 54 38 90q44 42 117 42q101 0 151.5 -49t50.5 -131v-119l-237 -49q-320 -63 -320 -285q0 -118 80.5 -195t202.5 -77q81 0 160.5 57t126.5 119h12q22 -78 73 -126q50 -47 125 -46h3q64 0 144 67 t118 119l-54 53q-71 -71 -92 -71t-49.5 25.5t-28.5 49.5v463q0 145 -114 227.5t-295 82.5q-59 0 -117.5 -12.5t-114.5 -40.5t-99 -67.5t-69 -98.5t-26 -128zM309 287q0 69 39.5 107t120.5 63l188 51v-219q-34 -59 -85.5 -103.5t-106.5 -44.5q-63 0 -109.5 42t-46.5 104z" />
<glyph unicode="b" horiz-adv-x="1226" d="M10 1397h37q20 0 61.5 -38.5t41.5 -60.5v-1298h8l182 143h10q44 -59 134 -111t188 -52q95 0 181.5 35.5t154 101t107.5 167.5t41 226q0 117 -37 212.5t-99.5 156t-142.5 93t-170 32.5q-89 0 -169 -42t-126 -94v711q-28 -8 -113 -37q-161 -51 -289 -80v-65zM410 616 q4 118 76 190.5t173 72.5q94 0 153 -63t67 -169q4 -68 4.5 -138.5t-4.5 -141.5q-7 -107 -76.5 -180.5t-157.5 -73.5q-100 0 -160.5 57t-70.5 168q-5 73 -5 172q0 50 1 106z" />
<glyph unicode="c" horiz-adv-x="1040" d="M66 467q0 -134 59 -246t166 -178t239 -66q173 0 307 100t183 267h-82q-25 -45 -72 -86q-98 -86 -243 -86q-138 0 -229.5 99.5t-96.5 252.5q-1 15 -1 29q0 147 66 246q72 108 187 108q54 0 87.5 -30t43.5 -69q7 -30 7 -63q0 -11 -1 -22q-1 -10 -1 -19q0 -38 18 -64 q22 -32 71 -32l150 248q-22 22 -50.5 43.5t-73 47.5t-104 41.5t-123.5 15.5q-105 0 -197.5 -38t-161 -106.5t-108.5 -170t-40 -222.5z" />
<glyph unicode="d" horiz-adv-x="1273" d="M72 508q0 -120 39.5 -221t105.5 -168t152.5 -104.5t181.5 -37.5t179 44t134 104l31 -125h338v74h-39q-22 0 -62 42t-40 70v1391q-39 -13 -134 -41q-176 -51 -303 -76v-63h60q20 0 61 -46.5t41 -74.5v-389q-49 53 -122.5 85t-155.5 32q-95 0 -179 -33t-148.5 -94 t-102 -156.5t-37.5 -212.5zM352 365q-4 70 -4 138.5t4 135.5q8 116 61.5 181t153.5 65q93 0 170.5 -82t81.5 -191q2 -68 1.5 -134t-1.5 -132q-4 -111 -68.5 -174t-168.5 -63q-93 0 -157.5 72.5t-72.5 183.5z" />
<glyph unicode="e" horiz-adv-x="1069" d="M68 487q0 -139 55.5 -253t168.5 -185.5t265 -71.5q159 0 284 98.5t187 268.5h-82q-123 -174 -321 -174q-126 0 -210 93t-89 224l626 50l19 69q0 50 -14 103t-45.5 106t-76.5 95t-113.5 68t-150.5 26q-218 0 -360.5 -144t-142.5 -373zM322 580v17q0 50 10 98 q12 56 37 104.5t71.5 78t108.5 29.5q44 0 78 -19.5t51.5 -50.5t29.5 -70q11 -37 11 -74q0 -36 -4 -77z" />
<glyph unicode="f" horiz-adv-x="704" d="M45 877h96q12 0 36 -28.5t24 -45.5v-617q0 -28 -41.5 -70t-63.5 -42h-39v-74h596v74h-80q-21 0 -63.5 42.5t-42.5 69.5v691h223v104h-223v72q0 33 -19.5 67.5t-43 60t-43 60t-19.5 66.5q0 87 35 108h20q0 -47 34.5 -85.5t84.5 -49.5h57q121 35 121 147q0 63 -43.5 106.5 t-113.5 43.5q-106 0 -184 -67.5t-115 -172.5t-37 -231v-125h-156v-104z" />
<glyph unicode="g" horiz-adv-x="1183" d="M31 -217q0 -59 52.5 -104t138 -69.5t178 -36t188.5 -11.5q91 0 178 15.5t164 46t124.5 85.5t47.5 125q0 110 -87 164.5t-227 54.5q-233 3 -376 15q-43 5 -74 28.5t-31 61.5q0 40 34 65t83 25h141q99 0 183.5 31.5t140.5 84t87.5 120.5t31.5 141q0 25 57 68.5t82 43.5h37 v244q-52 0 -118 -83.5t-101 -176.5h-9q-10 44 -43.5 91.5t-84 90t-122.5 71t-149 30.5h-16q-120 0 -219 -42q-107 -44 -170.5 -129.5t-63.5 -195.5q0 -69 28 -129.5t71.5 -99.5t85.5 -63t79 -34q-45 -7 -90.5 -21.5t-89.5 -37.5t-72 -58.5t-28 -76.5q0 -64 58 -105.5 t128 -50.5q-85 -21 -156 -68.5t-71 -109.5zM205 -186q0 37 39 66t82 38q0 -29 83.5 -49t196.5 -25q92 -6 162 -6h70h4q44 0 69 -20q22 -19 22 -47q0 -5 -1 -11q-4 -32 -43 -55.5t-96 -35t-108.5 -16.5t-94.5 -5q-50 0 -141 25.5t-167.5 66t-76.5 74.5zM358 549q-2 43 -2 85 t2 85q9 192 183 192q76 0 133.5 -63t62.5 -143q2 -44 2 -87.5t-2 -85.5q-9 -184 -182 -184q-77 0 -134.5 60t-62.5 141z" />
<glyph unicode="h" horiz-adv-x="1259" d="M41 0h524v72h-41q-19 0 -50.5 44.5t-31.5 69.5v449q0 17 42 62.5t107 87.5t116 42q41 0 74.5 -45t33.5 -94v-502q0 -25 -33.5 -69.5t-52.5 -44.5h-43v-72h526v72h-26q-21 0 -63 45t-42 69v527q0 108 -80 199.5t-194 91.5q-93 0 -189 -62.5t-176 -148.5v784 q-35 -14 -118 -41q-160 -50 -281 -76v-63h37q20 0 59 -37t39 -62v-1112q0 -24 -41.5 -69t-62.5 -45h-33v-72z" />
<glyph unicode="i" horiz-adv-x="673" d="M72 0h551v74h-48q-19 0 -58.5 45t-39.5 69v820q-71 -31 -121 -47q-160 -58 -278 -84v-66h33q20 0 61 -38t41 -62v-523q0 -28 -41 -71t-63 -43h-37v-74zM150 1329q0 -66 49 -114t116 -48q68 0 117 48t49 114t-49 114t-117 48q-67 0 -116 -48t-49 -114z" />
<glyph unicode="j" horiz-adv-x="651" d="M0 -238v-38q0 -82 49.5 -125t128.5 -43q89 0 164 61.5t115.5 153t40.5 186.5v1051q-122 -52 -144 -60q-108 -43 -301 -100v-62h76q20 0 62 -48t42 -72v-936q0 -30 -21.5 -51t-51.5 -21q-29 0 -48.5 19.5t-19.5 48.5v36h-92zM178 1329q0 -60 42.5 -101.5t103.5 -41.5 q62 0 103.5 41t41.5 102t-41.5 102.5t-103.5 41.5q-61 0 -103.5 -42t-42.5 -102z" />
<glyph unicode="k" horiz-adv-x="1234" d="M41 1370h37q20 0 61 -39t41 -61v-1082q0 -24 -41.5 -69t-62.5 -45h-33v-74h508v74h-29q-18 0 -50 44t-32 68v154l115 102l236 -331q11 -16 33.5 -43t25.5 -31l31 -37h333v74h-34q-22 0 -142 141l-290 399l151 140q41 34 127 94.5t104 60.5h33v72h-557v-72h90 q16 0 37 -32.5t28.5 -66t-5.5 -52.5l-305 -291h-9v1112q-56 -27 -120 -51q-101 -42 -281 -96v-62z" />
<glyph unicode="l" horiz-adv-x="657" d="M41 0h565v74h-45q-19 0 -60.5 44t-41.5 68v1393q-44 -16 -125 -41q-168 -51 -281 -78v-63h35q20 0 63.5 -39.5t43.5 -61.5v-1110q0 -24 -45 -68t-66 -44h-43v-74z" />
<glyph unicode="m" horiz-adv-x="1837" d="M51 815h39q20 0 59 -38t39 -60v-533q0 -26 -37.5 -69t-58.5 -43h-24v-72h503v72h-34q-19 0 -51.5 43.5t-32.5 68.5v451q0 17 43.5 65.5t104 92t99.5 43.5q41 0 74 -42.5t33 -88.5v-521q0 -24 -33 -68t-51 -44h-33v-72h490v72h-35q-19 0 -50.5 43.5t-31.5 68.5v480 q0 17 42 58t101.5 77.5t100.5 36.5q42 0 76 -41t34 -88l-2 -523q0 -25 -29 -68.5t-47 -43.5h-34v-72h491v72h-33q-19 0 -52.5 43.5t-33.5 68.5v529q0 113 -75.5 202t-196.5 89q-52 0 -104 -20t-102 -58.5t-81.5 -68t-75.5 -75.5q-19 89 -83 155.5t-158 66.5q-39 0 -83 -17.5 t-75.5 -37.5t-77 -60t-64 -59t-59.5 -62h-10l-61 231q-8 -4 -42.5 -20.5t-54.5 -24.5q-115 -49 -223 -77v-62z" />
<glyph unicode="n" horiz-adv-x="1255" d="M51 815h35q16 0 59 -39t43 -59v-531q0 -25 -38 -69.5t-58 -44.5h-31v-72h514v72h-36q-19 0 -52.5 44.5t-33.5 69.5v453q0 18 45 63t110 85t109 40q42 0 77 -45t35 -94v-502q0 -25 -34.5 -69.5t-53.5 -44.5h-36v-72h509v72h-30q-20 0 -56 44.5t-36 69.5v527 q0 108 -80.5 199.5t-194.5 91.5q-51 0 -105.5 -22.5t-107 -62.5t-88.5 -73.5t-78 -77.5l-53 240q-97 -44 -100 -45q-117 -50 -234 -86v-62z" />
<glyph unicode="o" horiz-adv-x="1157" d="M61 487q0 -117 44 -215.5t116.5 -161.5t164 -98t189.5 -35q136 0 252.5 61.5t190.5 181t74 272.5q0 150 -74 269t-191.5 181t-253.5 62q-95 0 -187 -37.5t-164 -103.5t-116.5 -164.5t-44.5 -211.5zM344 336q-4 80 -4 156t4 149q4 110 76 184t160 74q102 0 164.5 -57 t68.5 -172q4 -80 4 -158.5t-4 -155.5q-7 -112 -75.5 -187t-159.5 -75q-222 0 -234 242z" />
<glyph unicode="p" horiz-adv-x="1269" d="M41 899h43q22 0 62 -44t40 -73v-1018q0 -28 -40 -71t-60 -43h-35v-72h551v72h-49q-20 0 -57 43t-37 71v310q102 -94 235 -97h10q89 0 174 32q90 34 161.5 97.5t115 163t43.5 217.5q0 123 -39.5 223.5t-106 164.5t-152.5 97q-81 32 -170 32h-11q-99 0 -181 -46t-126 -102 l-25 125h-346v-82zM453 350q-1 67 -1 134.5t1 136.5q5 111 73.5 190.5t161.5 79.5q101 0 160.5 -68t64.5 -182q1 -67 1 -135t-1 -137q-5 -111 -74.5 -191t-162.5 -80q-101 0 -159.5 68.5t-63.5 183.5z" />
<glyph unicode="q" horiz-adv-x="1230" d="M72 487q0 -95 28 -178.5t76 -144t111.5 -104t136.5 -64.5q67 -19 136 -19h13q69 1 133.5 30.5t102.5 72.5v-316q0 -28 -37 -71t-57 -43h-80v-72h575v72h-34q-21 0 -59 43t-38 71v1217h-22l-183 -119q-142 142 -307 142h-11q-89 0 -172 -32q-89 -33 -159 -97 t-111.5 -164.5t-41.5 -223.5zM352 379q-2 69 -2 137t2 135q5 115 59.5 180.5t155.5 65.5q98 0 168 -76.5t78 -187.5q5 -70 5 -139.5t-5 -137.5q-6 -114 -68 -183t-163 -69q-92 0 -158.5 81.5t-71.5 193.5z" />
<glyph unicode="r" horiz-adv-x="925" d="M51 807h39q21 0 64 -36.5t43 -61.5v-516q0 -24 -42 -72.5t-61 -48.5h-39v-72h621v72h-111q-20 0 -62 48t-42 73v419q0 16 69.5 106.5t90.5 90.5q10 -40 42 -69t72 -40h60q59 17 89.5 58t30.5 96q0 63 -43.5 106.5t-111.5 43.5q-118 0 -228 -136l-100 -129h-8l-90 258 q-57 -32 -80 -43q-83 -40 -203 -86v-61z" />
<glyph unicode="s" horiz-adv-x="897" d="M72 705q0 -186 219 -287q124 -54 219 -88q66 -23 104.5 -53.5t38.5 -81.5q0 -53 -40 -81t-109 -28q-55 0 -119 27t-113.5 64.5t-82.5 77t-33 64.5h-60v-319h56q22 25 65 25q28 0 115 -24t147 -24h17q148 -1 246 81q104 86 104 227q0 103 -59.5 173.5t-159.5 108.5 q-165 64 -226 92q-49 23 -76 37.5t-52 42t-25 58.5q0 54 39 83t108 29q49 0 105.5 -25.5t98.5 -61t70.5 -72t28.5 -58.5h60v289h-56q-7 -10 -24.5 -16.5t-32.5 -6.5q-33 0 -119 23t-129 23q-142 0 -233.5 -81t-91.5 -218z" />
<glyph unicode="t" horiz-adv-x="751" d="M41 868h76q15 0 41 -28t26 -45v-588q0 -94 80 -160.5t168 -66.5q84 0 184 74t136 126l-58 64q-15 -22 -66 -59.5t-83 -37.5q-27 0 -61.5 33t-34.5 62v622h241v117h-248v330h-57q0 -28 -51.5 -108.5t-117.5 -151t-99 -70.5h-76v-113z" />
<glyph unicode="u" horiz-adv-x="1312" d="M47 909h37q19 0 59.5 -47t40.5 -67v-529q0 -108 75.5 -198.5t184.5 -90.5q85 0 197.5 68.5t192.5 161.5l6 -33q18 -83 73 -137.5t136 -54.5q93 0 254 190l-54 55q-69 -69 -94 -69q-20 0 -47 26.5t-27 46.5v750h-391v-72h41q19 0 52.5 -46t33.5 -68v-459 q-49 -66 -127.5 -123t-126.5 -57q-55 0 -84.5 40.5t-29.5 100.5v684h-402v-72z" />
<glyph unicode="v" horiz-adv-x="1081" d="M10 909h27q15 0 55.5 -42.5t52.5 -71.5l373 -805l90 57l314 748q21 35 56.5 74.5t53.5 39.5h39v72h-352v-72h41q16 0 37.5 -43.5t21.5 -70.5l-184 -445h-12l-185 445q0 26 24.5 70t41.5 44h41v72h-535v-72z" />
<glyph unicode="w" horiz-adv-x="1589" d="M12 909h25q16 0 58 -46.5t55 -74.5l313 -798l104 57l217 610h11l247 -667l97 57l291 744q13 27 54.5 72.5t57.5 45.5h35v72h-369v-72h45q18 0 44 -46t26 -72l-156 -416h-8l-241 606l-177 -164l-155 -440h-8l-150 416q0 27 25 71.5t43 44.5h45v72h-529v-72z" />
<glyph unicode="x" horiz-adv-x="1148" d="M20 909h29q19 0 76 -51t72 -72l258 -342l-211 -243q-20 -20 -96.5 -73.5t-94.5 -53.5h-30v-74h421v74h-26q-20 0 -38 52q-9 28 -10 48q0 16 7 25l139 166l125 -166q6 -8 6 -24q-1 -19 -9 -47q-16 -54 -36 -54h-27v-74h564v74h-25q-19 0 -74.5 49.5t-74.5 73.5l-283 366 l182 217q23 23 98 76t93 53h26v72h-389v-72h29q16 0 28 -55q5 -24 5 -40q0 -22 -9 -32l-122 -143l-111 143q-7 10 -7 30q-1 18 5 43q12 54 33 54h28v72h-551v-72z" />
<glyph unicode="y" horiz-adv-x="1118" d="M10 909h17q16 0 66 -49t63 -74l327 -735l-211 -422l99 -53l233 469l354 746q22 32 63 75t56 43h31v72h-377v-72h41q20 0 45 -44t25 -74l-203 -443h-12l-181 443q0 30 28 74t48 44h41v72h-553v-72z" />
<glyph unicode="z" horiz-adv-x="960" d="M31 0h868l31 340h-64q0 -19 -55.5 -79t-124.5 -113.5t-100 -53.5h-238l582 887h-848l-12 -289h63q0 30 82 119.5t111 89.5h258l-553 -819v-82z" />
<glyph unicode="{" horiz-adv-x="778" d="M123 606l108 -35q77 -25 108 -99.5t5 -152.5q-12 -30 -22 -63.5t-21 -89.5t-13 -107t9.5 -109t39.5 -103.5t84 -82t136 -51.5l16 80q-78 20 -112 55t-30.5 76.5t24 96.5t48 107t46 116t12.5 116q-11 94 -63.5 160t-121 94.5t-143.5 28.5q75 0 143.5 29.5t121 96 t63.5 159.5q6 52 -12.5 116t-46 116t-48 107t-24 96.5t30.5 76.5t112 55l-16 80q-80 -15 -136 -51.5t-84 -82t-39.5 -103.5t-9.5 -109t13 -107t21 -89.5t22 -63.5q26 -78 -5 -152.5t-108 -99.5l-108 -35v-76z" />
<glyph unicode="|" horiz-adv-x="628" d="M246 -422h137v1999h-137v-1999z" />
<glyph unicode="}" horiz-adv-x="778" d="M205 -207l16 -80q378 71 217 592q-3 10 -4 14q-26 78 5 152.5t108 99.5l108 35v76l-108 35q-77 25 -108 99.5t-5 152.5q1 4 4 14q66 213 44 344q-33 204 -259 248h-2l-16 -80q92 -24 123.5 -67.5t14.5 -102.5t-47.5 -119.5t-58 -138.5t-20.5 -139q11 -93 63.5 -159.5 t121 -96t143.5 -29.5q-75 0 -143.5 -28.5t-121 -94.5t-63.5 -160q-7 -61 20.5 -139t58 -138.5t47.5 -119.5t-14.5 -102.5t-123.5 -67.5z" />
<glyph unicode="~" horiz-adv-x="1269" d="M53 432h84q-1 57 44 95t114 38q66 0 190.5 -39.5t252.5 -79.5t204 -40q60 0 108.5 23t79 59t51 84t28.5 94.5t8 93.5h-84q1 -57 -44 -95t-114 -38q-54 0 -172 39.5t-251 79.5t-224 40q-59 0 -107 -23t-78.5 -59t-51.5 -84t-29.5 -94.5t-8.5 -93.5z" />
<glyph unicode="&#xa1;" horiz-adv-x="600" d="M133 1354q0 -66 49 -114t117 -48t117 48t49 114t-49 114t-117 48t-117 -48t-49 -114zM135 158q0 -66 49 -114t117 -48t117 48t49 114q0 8 -7 67.5t-19.5 142t-22.5 134.5q-36 142 -82 588h-70q-8 -75 -36.5 -287.5t-45.5 -300.5q-12 -51 -24 -134.5t-18.5 -142 t-6.5 -67.5z" />
<glyph unicode="&#xa2;" horiz-adv-x="1077" d="M82 467q0 -130 59.5 -242t168 -180t241.5 -68q71 0 151 23l39 -109l90 33l-40 111q88 48 151 127t94 182h-82q-17 -33 -49 -65q-77 -77 -166 -97l-254 711q43 16 80 16q80 0 114.5 -53t29.5 -125q-10 -110 84 -110l147 235q-23 23 -50.5 44t-72 47t-104 41.5t-123.5 15.5 q-69 0 -137 -19l-43 121l-91 -31l43 -123q-130 -61 -205 -188t-75 -297zM311 524q-10 100 14.5 181.5t77.5 134.5l238 -668h-2q-135 0 -225.5 100t-102.5 252z" />
<glyph unicode="&#xa3;" horiz-adv-x="1282" d="M82 70l37 -70h946l115 324h-84q-22 -22 -54 -50q-61 -49 -77 -49q-387 7 -621 -6q61 36 140 116.5t130 178.5h340v96h-299q14 43 17 92h352v97h-350l-2 420q0 61 41 103t106 42q61 0 99 -41.5t38 -103.5v-70h111v53q0 150 -80 233t-237 83q-169 0 -261 -99t-92 -264v-356 h-161v-97h161v-92h-161v-96h151q-23 -142 -97 -249t-208 -195z" />
<glyph unicode="&#xa5;" horiz-adv-x="1429" d="M25 1415h32q22 0 87.5 -68t82.5 -96l232 -479h-230v-96h275l43 -92h-318v-97h324v-288q0 -20 -45 -71.5t-62 -51.5h-40v-76h608v76h-39q-17 0 -62 51.5t-45 71.5v288h322v97h-313l38 92h275v96h-229l227 479q12 26 88 93t100 71h29v76h-494v-76h54q20 0 53.5 -64.5 t38.5 -97.5l-240 -528h-10l-232 535q5 33 42.5 94t58.5 61h51v76h-702v-76z" />
<glyph unicode="&#xa6;" horiz-adv-x="612" d="M236 336v-758h141v758h-141zM236 819h141v758h-141v-758z" />
<glyph unicode="&#xa7;" horiz-adv-x="1175" d="M84 690q-4 -123 66 -209.5t198 -132.5q185 -66 320 -127q79 -37 125.5 -92.5t46.5 -124.5q0 -89 -61 -139.5t-156 -48.5q-52 0 -111.5 35t-108.5 87t-90.5 109t-64.5 104.5t-23 69.5h-73l10 -487h71q36 33 93 33q43 0 139.5 -24.5t138.5 -27.5q190 -12 322.5 103.5 t128.5 292.5q-4 90 -47.5 165t-102.5 115q179 118 187 303q4 123 -67.5 209t-199.5 131q-119 40 -319 129q-64 29 -117 89t-53 128q0 90 55.5 138.5t153.5 46.5q52 -2 107 -37.5t98.5 -86.5t79.5 -107.5t55.5 -103.5t19.5 -71h76l-14 488h-72q-33 -33 -92 -33 q-43 0 -119.5 24t-118.5 27q-189 12 -319 -101t-123 -290q4 -92 45 -164.5t102 -116.5q-178 -113 -186 -303zM268 836q6 33 27.5 65t46.5 51q19 -14 51 -28.5t80 -31t80.5 -27t93.5 -28.5t80 -24q99 -29 147.5 -104t30.5 -160q-7 -33 -28.5 -63.5t-47.5 -49.5 q-67 49 -383 133q-99 27 -147.5 98t-30.5 169z" />
<glyph unicode="&#xa8;" horiz-adv-x="1062" d="M184 1262q0 -54 37.5 -90.5t91.5 -36.5t91.5 36.5t37.5 90.5t-37.5 90.5t-91.5 36.5t-91.5 -36.5t-37.5 -90.5zM610 1262q0 -54 37.5 -90.5t91.5 -36.5t91.5 36.5t37.5 90.5t-37.5 90.5t-91.5 36.5t-91.5 -36.5t-37.5 -90.5z" />
<glyph unicode="&#xa9;" horiz-adv-x="1687" d="M92 745q0 -210 98.5 -386.5t271.5 -279t382 -102.5q157 0 296.5 60.5t239 163.5t157.5 245t58 299q0 211 -98 388t-271 281t-382 104q-157 0 -297 -61.5t-239.5 -165t-157.5 -246.5t-58 -300zM211 745q0 184 81 337t226.5 243t325.5 90t325.5 -90t226.5 -243t81 -337 q0 -185 -81 -336.5t-226.5 -239t-325.5 -87.5t-325.5 87.5t-226.5 239t-81 336.5zM403 748q0 -194 132 -330.5t333 -132.5q141 4 240 75t154 181h-99q-93 -146 -270 -146q-111 0 -185.5 68.5t-86.5 183.5q-12 119 -5 207q7 143 74.5 206.5t169.5 63.5q44 0 86.5 -23 t72 -56.5t53 -71t35 -67t11.5 -42.5h74v285l-62 45q-7 -12 -28 -20.5t-37 -8.5q-33 0 -96 20.5t-111 20.5q-200 0 -327.5 -128t-127.5 -330z" />
<glyph unicode="&#xaa;" horiz-adv-x="987" d="M104 930q0 -90 66 -147.5t162 -57.5q60 0 124.5 44.5t102.5 92.5q12 -61 55.5 -98.5t102.5 -36.5q48 0 110.5 48.5t98.5 90.5l-45 49q-55 -55 -70 -55q-18 0 -39.5 19t-21.5 36v383q0 96 -97 152t-231 51q-40 -2 -83.5 -11.5t-90 -31t-80.5 -50.5t-53 -75t-11 -100 l33 -27q62 0 100.5 30.5t32.5 90.5q-4 41 27 69.5t74 28.5q71 0 121.5 -33.5t50.5 -91.5v-129q-40 -7 -199 -30q-44 -7 -83 -20.5t-76 -37t-59 -63t-22 -90.5zM283 956q0 49 26 79t74 38q20 4 158 27v-139q-8 -34 -53.5 -72.5t-84.5 -38.5q-51 0 -85.5 29t-34.5 77z" />
<glyph unicode="&#xab;" horiz-adv-x="1228" d="M72 580l573 -484v191l-416 346l416 348v186l-573 -483v-104zM563 580l574 -484v191l-416 346l416 348v186l-574 -483v-104z" />
<glyph unicode="&#xac;" horiz-adv-x="1282" d="M164 514h749v-395l185 96v479h-934v-180z" />
<glyph unicode="&#xad;" horiz-adv-x="702" d="M51 440h600v236h-600v-236z" />
<glyph unicode="&#xae;" horiz-adv-x="1687" d="M92 745q0 -210 98.5 -386.5t271.5 -279t382 -102.5q157 0 296.5 60.5t239 163.5t157.5 245t58 299q0 211 -98 388t-271 281t-382 104q-157 0 -297 -61.5t-239.5 -165t-157.5 -246.5t-58 -300zM211 745q0 184 81 337t226.5 243t325.5 90t325.5 -90t226.5 -243t81 -337 q0 -186 -81 -337.5t-226.5 -238.5t-325.5 -87t-325.5 87.5t-226.5 239t-81 336.5zM440 342h312l-11 121v248h84q16 0 48.5 -64.5t82.5 -159t97 -145.5h198l27 35q-123 157 -215 323l-59 37q76 20 132 77t56 144q0 65 -27.5 112t-76.5 73t-106.5 37.5t-127.5 11.5h-391v-57 h18q8 0 38 -30t30 -40v-592q0 -12 -27.5 -42t-38.5 -30h-43v-59zM741 782v297q0 11 20 31t32 20h41q59 0 104 -35.5t49 -99.5q3 -40 0 -86q-4 -63 -48.5 -95t-100.5 -32h-97z" />
<glyph unicode="&#xaf;" horiz-adv-x="530" d="M-14 1145h559v133h-559v-133z" />
<glyph unicode="&#xb0;" horiz-adv-x="804" d="M92 1219q0 -128 85 -212.5t214 -84.5q128 0 214.5 85t86.5 212q0 128 -86.5 213.5t-214.5 85.5q-129 0 -214 -85t-85 -214zM217 1219q0 79 50 133.5t124 54.5q75 0 125.5 -55t50.5 -133t-50.5 -132.5t-125.5 -54.5q-74 0 -124 54t-50 133z" />
<glyph unicode="&#xb1;" horiz-adv-x="1308" d="M219 0h871v152h-871v-152zM219 668h354v-346h166v346h348v153h-348v350h-166v-350h-354v-153z" />
<glyph unicode="&#xb2;" horiz-adv-x="819" d="M82 690h520l78 199h-57l-33 -29q-33 -29 -43 -29h-318q21 29 53 56t55 41t68.5 38t61.5 33q37 22 66 44t59.5 54.5t47.5 75t17 91.5q-1 121 -77 185.5t-201 59.5q-89 -4 -163.5 -55.5t-121.5 -122.5l53 -51q91 104 158 111q87 8 133 -70q27 -56 13.5 -106t-62.5 -93 q-225 -194 -307 -362v-70z" />
<glyph unicode="&#xb3;" horiz-adv-x="819" d="M104 1378l37 -67q115 86 183 86q42 2 71.5 -22t30.5 -64q0 -38 -16 -62t-58 -49l-102 -37v-63q99 8 156 -16.5t57 -100.5q0 -57 -36.5 -102t-93 -70t-103 -37.5t-87.5 -17.5l19 -94q45 3 106.5 18.5t131.5 46.5t128.5 72.5t95 102t31.5 128.5q-4 44 -27 76t-56.5 47.5 t-65 22t-62.5 6.5q148 62 148 178q-4 70 -56 108.5t-124 38.5q-136 0 -308 -129z" />
<glyph unicode="&#xb4;" horiz-adv-x="1150" d="M471 1100h78l346 330h-283z" />
<glyph unicode="&#xb6;" horiz-adv-x="1040" d="M51 1196q0 -122 86.5 -208.5t208.5 -86.5h76v-1323h139v1817h119v-1821l145 121v1597q0 23 47 73t70 50h37v76h-633q-122 0 -208.5 -86.5t-86.5 -208.5z" />
<glyph unicode="&#xb7;" horiz-adv-x="663" d="M123 696q0 -85 60.5 -144.5t148.5 -59.5t148.5 59.5t60.5 144.5t-61 145t-148 60t-148 -60t-61 -145z" />
<glyph unicode="&#xb8;" horiz-adv-x="980" d="M348 -338q7 -21 23 -42t59 -42.5t102 -21.5q88 0 161 52t73 138q0 77 -51 119.5t-129 42.5q-54 0 -111 -23l51 115h-92l-57 -160l59 -43q51 23 94 23t72 -25.5t29 -66.5q0 -43 -32 -69t-81 -26q-31 0 -59.5 17t-40.5 41z" />
<glyph unicode="&#xb9;" horiz-adv-x="819" d="M188 1290h76q11 0 31 -21t20 -34v-406q0 -16 -24 -41.5t-37 -25.5h-59v-72h434v72h-58q-11 0 -35 25.5t-24 41.5v662h-66q-45 -35 -75 -53q-85 -56 -183 -90v-58z" />
<glyph unicode="&#xba;" horiz-adv-x="987" d="M102 1116q0 -86 34 -162t89.5 -126.5t126 -79.5t142.5 -29q95 0 184 48.5t148 141.5t59 207q0 86 -35.5 161t-92.5 123t-126 75.5t-137 27.5t-137 -27.5t-126 -75.5t-93 -123t-36 -161zM328 1004q-10 119 0 239q1 93 40 132.5t126 39.5q68 0 116 -50.5t52 -135.5 q10 -116 0 -238q-4 -96 -42.5 -137t-123.5 -41q-70 0 -118.5 53t-49.5 138z" />
<glyph unicode="&#xbb;" horiz-adv-x="1228" d="M92 96l574 484v104l-574 483v-186l416 -348l-416 -346v-191zM584 96l573 484v104l-573 483v-186l415 -348l-415 -346v-191z" />
<glyph unicode="&#xbc;" horiz-adv-x="1652" d="M145 1290h76q11 0 31 -21t20 -34v-406q0 -16 -24 -41.5t-37 -25.5h-59v-72h434v72h-58q-11 0 -35 25.5t-24 41.5v662h-66q-45 -35 -75 -53q-85 -56 -183 -90v-58zM256 0h141l1012 1491h-145zM842 176h352v-47q0 -17 -24 -42.5t-37 -25.5h-29v-61h377v61h-33 q-14 0 -38 25.5t-24 42.5v47h103v94h-103v543l-120 -37l-424 -526v-74zM954 264l240 291v-291h-240z" />
<glyph unicode="&#xbd;" horiz-adv-x="1667" d="M145 1290h76q11 0 31 -21t20 -34v-406q0 -16 -24 -41.5t-37 -25.5h-59v-72h434v72h-58q-11 0 -35 25.5t-24 41.5v662h-66q-45 -35 -75 -53q-85 -56 -183 -90v-58zM256 0h141l1012 1491h-145zM961 0h520l78 199h-58l-33 -29q-33 -29 -43 -29h-317q21 29 53 56t55 41 t68.5 38t61.5 33q37 22 66 44t59.5 54t47.5 74.5t17 91.5q-1 121 -77.5 186t-201.5 60q-89 -4 -162.5 -55.5t-121.5 -122.5l53 -51q90 103 158 110q88 8 133 -69q27 -56 13.5 -106t-62.5 -93q-225 -194 -307 -362v-70z" />
<glyph unicode="&#xbe;" horiz-adv-x="1675" d="M131 1376l37 -67q115 86 182 86q42 2 72 -22t31 -64q0 -38 -16 -62t-58 -49l-103 -37v-63q99 8 156 -16.5t57 -100.5q0 -57 -36.5 -102t-92.5 -70t-102.5 -37.5t-87.5 -17.5l18 -95q58 3 139 28.5t165 69t140 116t50 155.5q-4 44 -27 76t-56.5 47.5t-65 22t-62.5 6.5 q147 62 147 178q-4 70 -56 108.5t-124 38.5q-135 0 -307 -129zM268 0h142l1011 1491h-145zM852 176h352v-47q0 -17 -24 -42.5t-37 -25.5h-29v-61h377v61h-33q-14 0 -37.5 25.5t-23.5 42.5v47h102v94h-102v543l-121 -37l-424 -526v-74zM965 264l239 291v-291h-239z" />
<glyph unicode="&#xbf;" horiz-adv-x="897" d="M133 317q0 77 33.5 147t81.5 123t96 102.5t81.5 106t33.5 113.5q0 32 -21.5 52t-52.5 20q-30 0 -51 -19.5t-21 -50.5v-102h-90v111q0 86 66 137t147 51q99 0 156 -57t57 -156q0 -52 -25.5 -112.5t-62.5 -115.5t-74 -109.5t-62.5 -113t-25.5 -108.5q0 -63 38.5 -105.5 t103.5 -42.5q66 0 106.5 42t40.5 100v110h107v-114q0 -151 -91.5 -238.5t-246.5 -87.5q-143 0 -233.5 87.5t-90.5 229.5zM313 1386q0 -54 37.5 -90t91.5 -36t91.5 36t37.5 90t-37.5 90.5t-91.5 36.5t-91.5 -36.5t-37.5 -90.5z" />
<glyph unicode="&#xc0;" d="M25 0h460v76h-39q-22 0 -59.5 53t-42.5 82l82 221h473l92 -223q0 -25 -43.5 -79t-66.5 -54h-37v-76h680v76h-29q-20 0 -76.5 51.5t-77.5 81.5l-536 1304l-123 -67l-467 -1235q-15 -28 -79.5 -81.5t-84.5 -53.5h-26v-76zM317 1827l408 -256h84l-154 256h-338zM459 535 l192 532h8l201 -532h-401z" />
<glyph unicode="&#xc1;" d="M25 0h460v76h-39q-22 0 -59.5 53t-42.5 82l82 221h473l92 -223q0 -25 -43.5 -79t-66.5 -54h-37v-76h680v76h-29q-20 0 -76.5 51.5t-77.5 81.5l-536 1304l-123 -67l-467 -1235q-15 -28 -79.5 -81.5t-84.5 -53.5h-26v-76zM459 535l192 532h8l201 -532h-401zM702 1571h84 l408 256h-338z" />
<glyph unicode="&#xc2;" d="M25 0h460v76h-39q-22 0 -59.5 53t-42.5 82l82 221h473l92 -223q0 -25 -43.5 -79t-66.5 -54h-37v-76h680v76h-29q-20 0 -76.5 51.5t-77.5 81.5l-536 1304l-123 -67l-467 -1235q-15 -28 -79.5 -81.5t-84.5 -53.5h-26v-76zM418 1571h112l209 131l209 -131h113l-217 256h-209 zM459 535l192 532h8l201 -532h-401z" />
<glyph unicode="&#xc3;" d="M25 0h460v76h-39q-22 0 -59.5 53t-42.5 82l82 221h473l92 -223q0 -25 -43.5 -79t-66.5 -54h-37v-76h680v76h-29q-20 0 -76.5 51.5t-77.5 81.5l-536 1304l-123 -67l-467 -1235q-15 -28 -79.5 -81.5t-84.5 -53.5h-26v-76zM440 1767q4 -87 55 -136.5t130 -49.5 q48 0 100 23.5t99.5 47t86.5 23.5q38 1 65 -19.5t40 -53.5l49 38q-4 87 -54.5 137t-129.5 50q-46 0 -94.5 -23.5l-97 -47t-95.5 -23.5q-33 0 -66.5 22t-40.5 51zM459 535l192 532h8l201 -532h-401z" />
<glyph unicode="&#xc4;" d="M25 0h460v76h-39q-22 0 -59.5 53t-42.5 82l82 221h473l92 -223q0 -25 -43.5 -79t-66.5 -54h-37v-76h680v76h-29q-20 0 -76.5 51.5t-77.5 81.5l-536 1304l-123 -67l-467 -1235q-15 -28 -79.5 -81.5t-84.5 -53.5h-26v-76zM438 1696q0 -54 37.5 -90.5t91.5 -36.5t91.5 36.5 t37.5 90.5t-37.5 90.5t-91.5 36.5t-91.5 -36.5t-37.5 -90.5zM459 535l192 532h8l201 -532h-401zM864 1696q0 -54 37.5 -90.5t91.5 -36.5t91.5 36.5t37.5 90.5t-37.5 90.5t-91.5 36.5t-91.5 -36.5t-37.5 -90.5z" />
<glyph unicode="&#xc5;" d="M25 0h460v76h-39q-22 0 -59.5 53t-42.5 82l82 221h473l92 -223q0 -25 -43.5 -79t-66.5 -54h-37v-76h680v76h-29q-20 0 -76.5 51.5t-77.5 81.5l-536 1304l-123 -67l-467 -1235q-15 -28 -79.5 -81.5t-84.5 -53.5h-26v-76zM459 535l192 532h8l201 -532h-401zM573 1735 q0 -78 55.5 -131.5t133.5 -53.5q76 0 131 54t55 131q0 74 -56 129t-130 55q-77 0 -133 -54.5t-56 -129.5zM666 1735q0 39 27.5 66.5t68.5 27.5q38 0 66 -28t28 -66q0 -41 -27.5 -69t-66.5 -28q-41 0 -68.5 28t-27.5 69z" />
<glyph unicode="&#xc6;" horiz-adv-x="2093" d="M25 0h458v76h-39q-23 0 -59 52.5t-41 82.5l86 221h481l78 -223q0 -25 -43.5 -79t-66.5 -54h-37v-76h1106l94 487h-82q0 -23 -82 -117t-180 -181t-135 -87h-146q-8 0 -29.5 17.5t-25.5 27.5l-219 570h260q24 0 92 -66t68 -90v-47h86v490h-86v-33q0 -23 -68.5 -88.5 t-93.5 -65.5h-295l-199 529q-4 10 10 28.5t25 18.5h621q16 0 78.5 -68.5t119 -145.5t56.5 -96h75v408h-1050l-121 -45l-506 -1235q-15 -28 -79.5 -81.5t-84.5 -53.5h-26v-76zM471 535l211 532h8l187 -532h-406z" />
<glyph unicode="&#xc7;" horiz-adv-x="1552" d="M82 743q0 -183 76.5 -342.5t218.5 -269t325 -141.5l-55 -150l60 -43q51 23 94 23t71.5 -25.5t28.5 -66.5q0 -43 -32 -69t-81 -26q-31 0 -59.5 17t-40.5 41l-70 -29q5 -14 16 -30t31.5 -34.5t56.5 -30t81 -11.5q88 0 160.5 52t72.5 138q0 77 -51 119.5t-129 42.5 q-54 0 -111 -23l43 95q37 -3 72 -3q123 2 229.5 35.5t185.5 91.5t137 128.5t99 156.5h-129q-170 -258 -477 -258q-195 0 -321 114.5t-138 321.5q-12 201 -4 379q20 469 394 469q73 0 146.5 -39t127 -96t96 -120t64.5 -112.5t22 -72.5h88v516h-82q-41 -35 -92 -35 q-55 0 -170 31t-202 31q-163 2 -303.5 -55t-238.5 -159t-154 -247t-56 -314z" />
<glyph unicode="&#xc8;" horiz-adv-x="1443" d="M82 1415h35q20 0 66 -49t46 -74v-1099q0 -25 -42 -71t-66 -46h-37v-76h1214l95 487h-82q0 -22 -84 -116.5t-184 -181.5t-136 -87h-315q-8 0 -21.5 17.5t-13.5 27.5v566h160q24 0 95 -66t71 -90v-43h86v490h-86v-37q0 -23 -71 -88.5t-95 -65.5h-160v539q0 11 13.5 26 t23.5 15h321q16 0 78.5 -68.5t119 -145.5t56.5 -96h76v408h-1163v-76zM344 1827l408 -256h84l-154 256h-338z" />
<glyph unicode="&#xc9;" horiz-adv-x="1443" d="M82 1415h35q20 0 66 -49t46 -74v-1099q0 -25 -42 -71t-66 -46h-37v-76h1214l95 487h-82q0 -22 -84 -116.5t-184 -181.5t-136 -87h-315q-8 0 -21.5 17.5t-13.5 27.5v566h160q24 0 95 -66t71 -90v-43h86v490h-86v-37q0 -23 -71 -88.5t-95 -65.5h-160v539q0 11 13.5 26 t23.5 15h321q16 0 78.5 -68.5t119 -145.5t56.5 -96h76v408h-1163v-76zM623 1571h84l407 256h-338z" />
<glyph unicode="&#xca;" horiz-adv-x="1443" d="M82 1415h35q20 0 66 -49t46 -74v-1099q0 -25 -42 -71t-66 -46h-37v-76h1214l95 487h-82q0 -22 -84 -116.5t-184 -181.5t-136 -87h-315q-8 0 -21.5 17.5t-13.5 27.5v566h160q24 0 95 -66t71 -90v-43h86v490h-86v-37q0 -23 -71 -88.5t-95 -65.5h-160v539q0 11 13.5 26 t23.5 15h321q16 0 78.5 -68.5t119 -145.5t56.5 -96h76v408h-1163v-76zM383 1571h113l209 131l208 -131h113l-217 256h-209z" />
<glyph unicode="&#xcb;" horiz-adv-x="1443" d="M82 1415h35q20 0 66 -49t46 -74v-1099q0 -25 -42 -71t-66 -46h-37v-76h1214l95 487h-82q0 -22 -84 -116.5t-184 -181.5t-136 -87h-315q-8 0 -21.5 17.5t-13.5 27.5v566h160q24 0 95 -66t71 -90v-43h86v490h-86v-37q0 -23 -71 -88.5t-95 -65.5h-160v539q0 11 13.5 26 t23.5 15h321q16 0 78.5 -68.5t119 -145.5t56.5 -96h76v408h-1163v-76zM385 1696q0 -54 37.5 -90.5t91.5 -36.5t91.5 36.5t37.5 90.5t-37.5 90.5t-91.5 36.5t-91.5 -36.5t-37.5 -90.5zM811 1696q0 -54 37.5 -90.5t91.5 -36.5t91.5 36.5t37.5 90.5t-37.5 90.5t-91.5 36.5 t-91.5 -36.5t-37.5 -90.5z" />
<glyph unicode="&#xcc;" horiz-adv-x="868" d="M23 1827l407 -256h84l-154 256h-337zM104 1415h62q21 0 68 -50t47 -73v-1093q0 -25 -45.5 -74t-67.5 -49h-62v-76h664v76h-59q-23 0 -67 49t-44 74v1093q0 23 47 73t70 50h59v76h-672v-76z" />
<glyph unicode="&#xcd;" horiz-adv-x="874" d="M92 1415h62q20 0 67 -50t47 -73v-1093q0 -25 -45 -74t-67 -49h-62v-76h664v76h-60q-23 0 -66.5 49t-43.5 74v1093q0 23 47 73t70 50h59v76h-672v-76zM365 1571h84l407 256h-338z" />
<glyph unicode="&#xce;" horiz-adv-x="858" d="M94 1415h62q20 0 67 -50t47 -73v-1093q0 -25 -45 -74t-67 -49h-62v-76h664v76h-60q-23 0 -66.5 49t-43.5 74v1093q0 23 47 73t70 50h59v76h-672v-76zM94 1571h113l209 131l209 -131h112l-217 256h-209z" />
<glyph unicode="&#xcf;" horiz-adv-x="868" d="M94 1696q0 -54 37.5 -90.5t91.5 -36.5t91.5 36.5t37.5 90.5t-37.5 90.5t-91.5 36.5t-91.5 -36.5t-37.5 -90.5zM96 1415h62q20 0 67 -50t47 -73v-1093q0 -25 -45 -74t-67 -49h-62v-76h664v76h-60q-23 0 -66.5 49t-43.5 74v1093q0 23 47 73t70 50h59v76h-672v-76zM520 1696 q0 -54 37.5 -90.5t91.5 -36.5t91.5 36.5t37.5 90.5t-37.5 90.5t-91.5 36.5t-91.5 -36.5t-37.5 -90.5z" />
<glyph unicode="&#xd0;" d="M92 0h608q144 0 283.5 55.5t249 152t177 239t67.5 303.5q0 135 -45.5 254.5t-123 207t-177.5 151.5t-211.5 96t-223.5 32h-604v-76h33q20 0 66.5 -47t46.5 -72v-477h-144v-98h144v-526q0 -28 -44.5 -73.5t-68.5 -45.5h-33v-76zM565 201v520h346v98h-346v473q0 25 34.5 64 t57.5 39h48q93 0 166.5 -25t132.5 -79t92 -148t37 -223v-347q-4 -129 -38 -222.5t-93 -146.5t-130 -77.5t-159 -24.5h-49q-20 0 -59.5 38.5t-39.5 60.5z" />
<glyph unicode="&#xd1;" horiz-adv-x="1662" d="M82 0h496v76h-56q-21 0 -82 65.5t-61 89.5v977h6l1040 -1245v1313q0 24 51 81.5t72 57.5h43v76h-463v-76h52q19 0 72 -57.5t53 -81.5v-690h-11l-739 905h-449v-76h33q16 0 65.5 -56t49.5 -79v-1049q0 -24 -61 -89.5t-82 -65.5h-29v-76zM532 1767q4 -87 55 -136.5 t130 -49.5q48 0 100.5 23.5t100 47t86.5 23.5q73 3 104 -73l49 38q-4 87 -54.5 137t-129.5 50q-46 0 -94.5 -23.5l-97 -47t-95.5 -23.5q-33 0 -66 22t-40 51z" />
<glyph unicode="&#xd2;" horiz-adv-x="1712" d="M74 752q0 -161 59.5 -304.5t163 -247t249.5 -163.5t312 -60t312 60t249.5 163.5t163 247.5t59.5 306q0 155 -60 295.5t-163 243.5t-249.5 164t-311.5 61t-311.5 -61t-249.5 -164t-163 -244t-60 -297zM428 510q-11 225 0 446q12 197 134.5 325t295.5 128q191 0 304.5 -111 t123.5 -313q11 -227 0 -446q-12 -194 -136.5 -317.5t-293.5 -123.5q-192 0 -305 105.5t-123 306.5zM465 1827l407 -256h84l-153 256h-338z" />
<glyph unicode="&#xd3;" horiz-adv-x="1712" d="M74 752q0 -161 59.5 -304.5t163 -247t249.5 -163.5t312 -60t312 60t249.5 163.5t163 247.5t59.5 306q0 155 -60 295.5t-163 243.5t-249.5 164t-311.5 61t-311.5 -61t-249.5 -164t-163 -244t-60 -297zM428 510q-11 225 0 446q12 197 134.5 325t295.5 128q191 0 304.5 -111 t123.5 -313q11 -227 0 -446q-12 -194 -136.5 -317.5t-293.5 -123.5q-192 0 -305 105.5t-123 306.5zM762 1571h84l407 256h-338z" />
<glyph unicode="&#xd4;" horiz-adv-x="1712" d="M74 752q0 -161 59.5 -304.5t163 -247t249.5 -163.5t312 -60t312 60t249.5 163.5t163 247.5t59.5 306q0 155 -60 295.5t-163 243.5t-249.5 164t-311.5 61t-311.5 -61t-249.5 -164t-163 -244t-60 -297zM428 510q-11 225 0 446q12 197 134.5 325t295.5 128q191 0 304.5 -111 t123.5 -313q11 -227 0 -446q-12 -194 -136.5 -317.5t-293.5 -123.5q-192 0 -305 105.5t-123 306.5zM514 1571h113l209 131l208 -131h113l-217 256h-209z" />
<glyph unicode="&#xd5;" horiz-adv-x="1712" d="M74 752q0 -161 59.5 -304.5t163 -247t249.5 -163.5t312 -60t312 60t249.5 163.5t163 247.5t59.5 306q0 155 -60 295.5t-163 243.5t-249.5 164t-311.5 61t-311.5 -61t-249.5 -164t-163 -244t-60 -297zM428 510q-11 225 0 446q12 197 134.5 325t295.5 128q191 0 304.5 -111 t123.5 -313q11 -227 0 -446q-12 -194 -136.5 -317.5t-293.5 -123.5q-192 0 -305 105.5t-123 306.5zM547 1767q4 -87 54.5 -136.5t129.5 -49.5q48 0 100.5 23.5t100 47t86.5 23.5q73 3 104 -73l49 38q-4 87 -54.5 137t-129.5 50q-46 0 -94.5 -23.5l-97 -47t-95.5 -23.5 q-33 0 -66 22t-40 51z" />
<glyph unicode="&#xd6;" horiz-adv-x="1712" d="M74 752q0 -161 59.5 -304.5t163 -247t249.5 -163.5t312 -60t312 60t249.5 163.5t163 247.5t59.5 306q0 155 -60 295.5t-163 243.5t-249.5 164t-311.5 61t-311.5 -61t-249.5 -164t-163 -244t-60 -297zM428 510q-11 225 0 446q12 197 134.5 325t295.5 128q191 0 304.5 -111 t123.5 -313q11 -227 0 -446q-12 -194 -136.5 -317.5t-293.5 -123.5q-192 0 -305 105.5t-123 306.5zM518 1696q0 -54 37.5 -90.5t91.5 -36.5t91.5 36.5t37.5 90.5t-37.5 90.5t-91.5 36.5t-91.5 -36.5t-37.5 -90.5zM944 1696q0 -54 37.5 -90.5t91.5 -36.5t91.5 36.5t37.5 90.5 t-37.5 90.5t-91.5 36.5t-91.5 -36.5t-37.5 -90.5z" />
<glyph unicode="&#xd7;" horiz-adv-x="1310" d="M143 920l406 -408l-402 -401l103 -103l403 402l408 -408l106 104l-409 410l403 404l-102 102l-404 -404l-407 408z" />
<glyph unicode="&#xd8;" horiz-adv-x="1712" d="M72 752q0 -176 65.5 -324t186.5 -256l-70 -92l104 -80l72 94q194 -117 426 -117q166 0 312 60t249.5 163.5t163 247.5t59.5 306q0 171 -70 320.5t-196 256.5l64 84l-105 80l-67 -88q-182 108 -410 111q-165 0 -311.5 -61t-249.5 -164t-163 -244t-60 -297zM426 543 q-11 219 0 446q10 203 124 314.5t304 111.5q87 0 166.5 -38.5t140.5 -106.5l-694 -910q-38 92 -41 183zM543 242l694 911q41 -90 47 -192q11 -222 0 -447q-10 -202 -123.5 -310t-304.5 -108q-186 0 -313 146z" />
<glyph unicode="&#xd9;" horiz-adv-x="1642" d="M61 1415h39q14 0 64.5 -57t50.5 -74v-721q0 -164 86 -299.5t226.5 -211t301.5 -75.5q266 0 427 147.5t161 397.5v735q0 20 57 89t74 69h33v76h-475v-76h51q17 0 77 -69t60 -89v-747q0 -157 -98.5 -260t-271.5 -103q-169 0 -275 105.5t-106 284.5v747q0 17 50 74t64 57h54 v76h-650v-76zM516 1827l408 -256h84l-154 256h-338z" />
<glyph unicode="&#xda;" horiz-adv-x="1642" d="M61 1415h39q14 0 64.5 -57t50.5 -74v-721q0 -164 86 -299.5t226.5 -211t301.5 -75.5q266 0 427 147.5t161 397.5v735q0 20 57 89t74 69h33v76h-475v-76h51q17 0 77 -69t60 -89v-747q0 -157 -98.5 -260t-271.5 -103q-169 0 -275 105.5t-106 284.5v747q0 17 50 74t64 57h54 v76h-650v-76zM827 1571h84l408 256h-338z" />
<glyph unicode="&#xdb;" horiz-adv-x="1642" d="M61 1415h39q14 0 64.5 -57t50.5 -74v-721q0 -164 86 -299.5t226.5 -211t301.5 -75.5q266 0 427 147.5t161 397.5v735q0 20 57 89t74 69h33v76h-475v-76h51q17 0 77 -69t60 -89v-747q0 -157 -98.5 -260t-271.5 -103q-169 0 -275 105.5t-106 284.5v747q0 17 50 74t64 57h54 v76h-650v-76zM571 1571h113l209 131l209 -131h112l-217 256h-209z" />
<glyph unicode="&#xdc;" horiz-adv-x="1642" d="M61 1415h39q14 0 64.5 -57t50.5 -74v-721q0 -164 86 -299.5t226.5 -211t301.5 -75.5q266 0 427 147.5t161 397.5v735q0 20 57 89t74 69h33v76h-475v-76h51q17 0 77 -69t60 -89v-747q0 -157 -98.5 -260t-271.5 -103q-169 0 -275 105.5t-106 284.5v747q0 17 50 74t64 57h54 v76h-650v-76zM578 1696q0 -54 37.5 -90.5t91.5 -36.5t91.5 36.5t37.5 90.5t-37.5 90.5t-91.5 36.5t-91.5 -36.5t-37.5 -90.5zM1004 1696q0 -54 37.5 -90.5t91.5 -36.5t91.5 36.5t37.5 90.5t-37.5 90.5t-91.5 36.5t-91.5 -36.5t-37.5 -90.5z" />
<glyph unicode="&#xdd;" horiz-adv-x="1470" d="M20 1415h25q22 0 87.5 -68t82.5 -96l354 -626v-426q0 -20 -44.5 -71.5t-61.5 -51.5h-41v-76h616v76h-39q-17 0 -61.5 51.5t-44.5 71.5v426l348 626q12 26 88.5 93t100.5 71h20v76h-489v-76h57q20 0 53.5 -64.5t38.5 -97.5l-272 -493h-11l-264 500q5 33 41 94t55 61h62v76 h-701v-76zM737 1571h84l408 256h-338z" />
<glyph unicode="&#xde;" horiz-adv-x="1345" d="M82 0h684v76h-104q-20 0 -65.5 49t-45.5 72v125l113 -3q120 0 232 28.5t204.5 83.5t148.5 147t56 208q0 92 -36.5 168.5t-97 127.5t-140.5 86t-166 50t-175 13l-139 -2v65q0 23 45.5 72t65.5 49h40v76h-620v-76h31q19 0 63.5 -48.5t44.5 -72.5v-1097q0 -24 -44.5 -72.5 t-63.5 -48.5h-31v-76zM547 428v707h158q95 0 179 -84t91 -191q8 -85 0 -174q-7 -103 -96 -180.5t-195 -77.5h-137z" />
<glyph unicode="&#xdf;" horiz-adv-x="1312" d="M51 0h408v1114q0 56 1 91t5.5 79t14 70.5t24.5 51t40 35.5t58 11q80 0 149.5 -75.5t69.5 -166.5q0 -127 -147 -206l-144 -74v-74q62 -51 175 -137t159 -123q106 -80 153.5 -155.5t47.5 -172.5q0 -78 -52 -133t-124 -55q-49 0 -103 24t-92 74h-73l-148 -231 q95 -41 201 -41q156 0 292.5 76.5t215 199t78.5 256.5q0 197 -205 348q-163 116 -260 193q101 41 179.5 131t78.5 195q0 129 -84.5 200.5t-208.5 71.5q-80 0 -159.5 -20.5t-152.5 -63.5t-129.5 -102.5t-90 -144.5t-33.5 -183v-877q0 -28 -42 -70t-65 -42h-37v-74z" />
<glyph unicode="&#xe0;" horiz-adv-x="1134" d="M80 657l43 -45q77 -12 128 25t44 102q-7 66 36.5 108t117.5 42q101 0 151.5 -49t50.5 -131v-119l-237 -49q-320 -63 -320 -285q0 -118 80.5 -195t202.5 -77q81 0 160.5 57t126.5 119h12q22 -78 73 -125.5t128 -46.5q64 0 144 67t118 119l-54 53q-71 -71 -92 -71 t-49.5 25.5t-28.5 49.5v463q0 145 -114 227.5t-295 82.5q-59 0 -117.5 -12.5t-114.5 -40.5t-99 -67.5t-69 -98.5t-26 -128zM195 1430l346 -330h77l-141 330h-282zM309 287q0 69 39.5 107t120.5 63l188 51v-219q-34 -59 -85.5 -103.5t-106.5 -44.5q-63 0 -109.5 42t-46.5 104 z" />
<glyph unicode="&#xe1;" horiz-adv-x="1134" d="M80 657l43 -45q77 -12 128 25t44 102q-7 66 36.5 108t117.5 42q101 0 151.5 -49t50.5 -131v-119l-237 -49q-320 -63 -320 -285q0 -118 80.5 -195t202.5 -77q81 0 160.5 57t126.5 119h12q22 -78 73 -125.5t128 -46.5q64 0 144 67t118 119l-54 53q-71 -71 -92 -71 t-49.5 25.5t-28.5 49.5v463q0 145 -114 227.5t-295 82.5q-59 0 -117.5 -12.5t-114.5 -40.5t-99 -67.5t-69 -98.5t-26 -128zM309 287q0 69 39.5 107t120.5 63l188 51v-219q-34 -59 -85.5 -103.5t-106.5 -44.5q-63 0 -109.5 42t-46.5 104zM414 1100h78l346 330h-283z" />
<glyph unicode="&#xe2;" horiz-adv-x="1134" d="M80 657l43 -45q77 -12 128 25t44 102q-7 66 36.5 108t117.5 42q101 0 151.5 -49t50.5 -131v-119l-237 -49q-320 -63 -320 -285q0 -118 80.5 -195t202.5 -77q81 0 160.5 57t126.5 119h12q22 -78 73 -125.5t128 -46.5q64 0 144 67t118 119l-54 53q-71 -71 -92 -71 t-49.5 25.5t-28.5 49.5v463q0 145 -114 227.5t-295 82.5q-59 0 -117.5 -12.5t-114.5 -40.5t-99 -67.5t-69 -98.5t-26 -128zM211 1100h82l217 170l219 -170h82l-207 307h-184zM309 287q0 69 39.5 107t120.5 63l188 51v-219q-34 -59 -85.5 -103.5t-106.5 -44.5 q-63 0 -109.5 42t-46.5 104z" />
<glyph unicode="&#xe3;" horiz-adv-x="1134" d="M80 657l43 -45q77 -12 128 25t44 102q-7 66 36.5 108t117.5 42q101 0 151.5 -49t50.5 -131v-119l-237 -49q-320 -63 -320 -285q0 -118 80.5 -195t202.5 -77q81 0 160.5 57t126.5 119h12q22 -78 73 -125.5t128 -46.5q64 0 144 67t118 119l-54 53q-71 -71 -92 -71 t-49.5 25.5t-28.5 49.5v463q0 145 -114 227.5t-295 82.5q-59 0 -117.5 -12.5t-114.5 -40.5t-99 -67.5t-69 -98.5t-26 -128zM217 1298q4 -90 55.5 -143t130.5 -53q51 0 108.5 24t111.5 50t94 28q43 1 64.5 -18t37.5 -58l55 43q-4 87 -56 141t-130 54q-48 0 -101.5 -25 t-107.5 -50t-104 -25q-36 0 -67 21.5t-38 53.5zM309 287q0 69 39.5 107t120.5 63l188 51v-219q-34 -59 -85.5 -103.5t-106.5 -44.5q-63 0 -109.5 42t-46.5 104z" />
<glyph unicode="&#xe4;" horiz-adv-x="1134" d="M80 657l43 -45q77 -12 128 25t44 102q-7 66 36.5 108t117.5 42q101 0 151.5 -49t50.5 -131v-119l-237 -49q-320 -63 -320 -285q0 -118 80.5 -195t202.5 -77q81 0 160.5 57t126.5 119h12q22 -78 73 -125.5t128 -46.5q64 0 144 67t118 119l-54 53q-71 -71 -92 -71 t-49.5 25.5t-28.5 49.5v463q0 145 -114 227.5t-295 82.5q-59 0 -117.5 -12.5t-114.5 -40.5t-99 -67.5t-69 -98.5t-26 -128zM174 1262q0 -54 37.5 -90.5t91.5 -36.5t91.5 36.5t37.5 90.5t-37.5 90.5t-91.5 36.5t-91.5 -36.5t-37.5 -90.5zM309 287q0 69 39.5 107t120.5 63 l188 51v-219q-34 -59 -85.5 -103.5t-106.5 -44.5q-63 0 -109.5 42t-46.5 104zM600 1262q0 -54 37.5 -90.5t91.5 -36.5t91.5 36.5t37.5 90.5t-37.5 90.5t-91.5 36.5t-91.5 -36.5t-37.5 -90.5z" />
<glyph unicode="&#xe5;" horiz-adv-x="1134" d="M80 657l43 -45q77 -12 128 25t44 102q-7 66 36.5 108t117.5 42q101 0 151.5 -49t50.5 -131v-119l-237 -49q-320 -63 -320 -285q0 -118 80.5 -195t202.5 -77q81 0 160.5 57t126.5 119h12q22 -78 73 -125.5t128 -46.5q64 0 144 67t118 119l-54 53q-71 -71 -92 -71 t-49.5 25.5t-28.5 49.5v463q0 145 -114 227.5t-295 82.5q-59 0 -117.5 -12.5t-114.5 -40.5t-99 -67.5t-69 -98.5t-26 -128zM309 287q0 69 39.5 107t120.5 63l188 51v-219q-34 -59 -85.5 -103.5t-106.5 -44.5q-63 0 -109.5 42t-46.5 104zM342 1303q0 -79 57 -134t136 -55 q77 0 133.5 55t56.5 134t-56.5 133.5t-133.5 54.5q-79 0 -136 -54.5t-57 -133.5zM438 1303q0 39 28 66.5t69 27.5q38 0 66 -28t28 -66q0 -41 -27.5 -69t-66.5 -28q-41 0 -69 28t-28 69z" />
<glyph unicode="&#xe6;" horiz-adv-x="1652" d="M82 664l43 -43q73 -6 121.5 34.5t40.5 100.5q-11 68 25 103.5t126 35.5q102 0 155.5 -52t53.5 -134v-142l-248 -32q-58 -9 -107 -25.5t-98 -47t-77.5 -83.5t-28.5 -123q0 -118 80.5 -195t202.5 -77q68 0 140.5 37t117 78t73.5 79h46q131 -201 391 -201q158 0 284.5 99 t188.5 268h-80q-123 -174 -328 -174q-126 0 -211 98.5t-90 231.5l631 37l16 67q0 51 -13.5 104t-45 106.5t-76 95.5t-113 68t-149.5 26q-201 0 -334 -121q-89 121 -309 121q-75 0 -147.5 -19t-137 -57.5t-104 -106.5t-39.5 -157zM301 289q0 72 40 112t120 54l192 28v-200 q-17 -39 -74 -88.5t-104 -53.5q-68 -8 -121 36.5t-53 111.5zM903 586q-3 80 16.5 151t71.5 122.5t129 51.5q55 0 93.5 -29.5t55.5 -78t23.5 -95.5t3.5 -96z" />
<glyph unicode="&#xe7;" horiz-adv-x="1042" d="M68 483q-4 -185 93 -319.5t259 -171.5l-55 -152l59 -43q51 23 94 23t71.5 -25.5t28.5 -66.5q0 -43 -32 -69t-80 -26q-31 0 -59.5 17t-40.5 41l-70 -29q7 -21 23 -42t59 -42.5t102 -21.5q88 0 161 52t73 138q0 77 -51.5 119.5t-129.5 42.5q-53 0 -110 -23l43 95h43 q169 4 296 102.5t177 261.5h-82q-25 -45 -72 -86q-98 -86 -243 -86q-138 0 -229.5 99.5t-96.5 252.5q-7 167 64.5 276t187.5 109q54 0 87.5 -30t43 -69.5t6.5 -86.5q-5 -52 17 -83.5t71 -31.5l150 248q-22 22 -50.5 43.5t-73 47.5t-104 41.5t-123.5 15.5q-102 0 -193 -36 t-160 -101.5t-110.5 -165t-43.5 -218.5z" />
<glyph unicode="&#xe8;" horiz-adv-x="1069" d="M68 487q0 -139 55.5 -253t168.5 -185.5t265 -71.5q159 0 284 98.5t187 268.5h-82q-123 -174 -321 -174q-126 0 -210 93t-89 224l626 50l19 69q0 50 -14 103t-45.5 106t-76.5 95t-113.5 68t-150.5 26q-218 0 -360.5 -144t-142.5 -373zM193 1430l346 -330h77l-141 330h-282 zM322 580q-2 59 9.5 115t37 104.5t72 78t108.5 29.5q44 0 78 -19.5t51.5 -50.5t29 -70t11 -77.5t-3.5 -73.5z" />
<glyph unicode="&#xe9;" horiz-adv-x="1069" d="M68 487q0 -139 55.5 -253t168.5 -185.5t265 -71.5q159 0 284 98.5t187 268.5h-82q-123 -174 -321 -174q-126 0 -210 93t-89 224l626 50l19 69q0 50 -14 103t-45.5 106t-76.5 95t-113.5 68t-150.5 26q-218 0 -360.5 -144t-142.5 -373zM322 580q-2 59 9.5 115t37 104.5 t72 78t108.5 29.5q44 0 78 -19.5t51.5 -50.5t29 -70t11 -77.5t-3.5 -73.5zM471 1100h78l346 330h-283z" />
<glyph unicode="&#xea;" horiz-adv-x="1069" d="M68 487q0 -139 55.5 -253t168.5 -185.5t265 -71.5q159 0 284 98.5t187 268.5h-82q-123 -174 -321 -174q-126 0 -210 93t-89 224l626 50l19 69q0 50 -14 103t-45.5 106t-76.5 95t-113.5 68t-150.5 26q-218 0 -360.5 -144t-142.5 -373zM242 1100h82l217 170l219 -170h82 l-207 307h-184zM322 580q-2 59 9.5 115t37 104.5t72 78t108.5 29.5q44 0 78 -19.5t51.5 -50.5t29 -70t11 -77.5t-3.5 -73.5z" />
<glyph unicode="&#xeb;" horiz-adv-x="1069" d="M68 487q0 -139 55.5 -253t168.5 -185.5t265 -71.5q159 0 284 98.5t187 268.5h-82q-123 -174 -321 -174q-126 0 -210 93t-89 224l626 50l19 69q0 50 -14 103t-45.5 106t-76.5 95t-113.5 68t-150.5 26q-218 0 -360.5 -144t-142.5 -373zM199 1262q0 -54 37.5 -90.5 t91.5 -36.5t91.5 36.5t37.5 90.5t-37.5 90.5t-91.5 36.5t-91.5 -36.5t-37.5 -90.5zM322 580q-2 59 9.5 115t37 104.5t72 78t108.5 29.5q44 0 78 -19.5t51.5 -50.5t29 -70t11 -77.5t-3.5 -73.5zM625 1262q0 -54 37.5 -90.5t91.5 -36.5t91.5 36.5t37.5 90.5t-37.5 90.5 t-91.5 36.5t-91.5 -36.5t-37.5 -90.5z" />
<glyph unicode="&#xec;" horiz-adv-x="684" d="M6 1430l346 -330h78l-141 330h-283zM82 0h551v74h-47q-19 0 -59 45t-40 69v820q-74 -32 -120 -47q-159 -58 -279 -84v-66h33q20 0 61 -38t41 -62v-523q0 -28 -41 -71t-63 -43h-37v-74z" />
<glyph unicode="&#xed;" horiz-adv-x="669" d="M72 0h551v74h-48q-19 0 -58.5 45t-39.5 69v820q-71 -31 -121 -47q-160 -58 -278 -84v-66h33q20 0 61 -38t41 -62v-523q0 -28 -41 -71t-63 -43h-37v-74zM244 1100h78l346 330h-283z" />
<glyph unicode="&#xee;" horiz-adv-x="677" d="M18 1100h82l217 170l220 -170h81l-206 307h-185zM76 0h551v74h-47q-19 0 -59 45t-40 69v820q-71 -31 -121 -47q-160 -58 -278 -84v-66h33q20 0 61 -38t41 -62v-523q0 -28 -41 -71t-63 -43h-37v-74z" />
<glyph unicode="&#xef;" horiz-adv-x="688" d="M-4 1262q0 -54 37.5 -90.5t91.5 -36.5t91.5 36.5t37.5 90.5t-37.5 90.5t-91.5 36.5t-91.5 -36.5t-37.5 -90.5zM86 0h551v74h-47q-19 0 -58.5 45t-39.5 69v820q-71 -31 -121 -47q-159 -58 -279 -84v-66h33q20 0 61 -38t41 -62v-523q0 -28 -41 -71t-63 -43h-37v-74z M422 1262q0 -54 37.5 -90.5t91.5 -36.5t91.5 36.5t37.5 90.5t-37.5 90.5t-91.5 36.5t-91.5 -36.5t-37.5 -90.5z" />
<glyph unicode="&#xf0;" horiz-adv-x="1210" d="M61 512q0 -237 132.5 -386t355.5 -149q160 0 293 107t207 277.5t77 363.5q1 178 -57.5 329t-163.5 267l121 43v127l-219 -78q-78 66 -180 109.5t-201 54.5l-27 -86q141 -47 246 -135l-233 -84v-127l323 115q177 -219 144 -433q-42 69 -132.5 123t-222.5 54 q-87 0 -169 -32.5t-148 -92t-106 -155.5t-40 -212zM307 383q0 191 92 329t217 138q110 0 166 -69.5t56 -164.5q0 -125 -44 -242t-117.5 -190t-154.5 -73q-103 0 -159 73.5t-56 198.5z" />
<glyph unicode="&#xf1;" horiz-adv-x="1269" d="M51 815h35q16 0 59 -39t43 -59v-531q0 -25 -38 -69.5t-58 -44.5h-31v-72h514v72h-36q-19 0 -52.5 44.5t-33.5 69.5v453q0 18 45 63t110 85t109 40q42 0 77 -45t35 -94v-502q0 -25 -34.5 -69.5t-53.5 -44.5h-36v-72h509v72h-30q-20 0 -56 44.5t-36 69.5v527 q0 108 -80.5 199.5t-194.5 91.5q-51 0 -105.5 -22.5t-107 -62.5t-88.5 -73.5t-78 -77.5l-53 240q-97 -44 -100 -45q-117 -50 -234 -86v-62zM303 1298q4 -90 55.5 -143t130.5 -53q51 0 108.5 24t111.5 50t94 28q43 1 64.5 -18t37.5 -58l56 43q-4 87 -56.5 141t-130.5 54 q-48 0 -101.5 -25t-107.5 -50t-104 -25q-36 0 -67 21.5t-38 53.5z" />
<glyph unicode="&#xf2;" horiz-adv-x="1153" d="M61 487q0 -117 44 -215.5t116.5 -161.5t164 -98t189.5 -35q136 0 252.5 61.5t190.5 181t74 272.5q0 150 -74 269t-191.5 181t-253.5 62q-95 0 -187 -37.5t-164 -103.5t-116.5 -164.5t-44.5 -211.5zM219 1430l346 -330h78l-141 330h-283zM344 336q-8 159 0 305 q4 110 76 184t160 74q102 0 164.5 -57t68.5 -172q8 -160 0 -314q-7 -112 -75.5 -187t-159.5 -75q-222 0 -234 242z" />
<glyph unicode="&#xf3;" horiz-adv-x="1153" d="M61 487q0 -117 44 -215.5t116.5 -161.5t164 -98t189.5 -35q136 0 252.5 61.5t190.5 181t74 272.5q0 150 -74 269t-191.5 181t-253.5 62q-95 0 -187 -37.5t-164 -103.5t-116.5 -164.5t-44.5 -211.5zM344 336q-8 159 0 305q4 110 76 184t160 74q102 0 164.5 -57t68.5 -172 q8 -160 0 -314q-7 -112 -75.5 -187t-159.5 -75q-222 0 -234 242zM494 1100h77l347 330h-283z" />
<glyph unicode="&#xf4;" horiz-adv-x="1153" d="M61 487q0 -117 44 -215.5t116.5 -161.5t164 -98t189.5 -35q136 0 252.5 61.5t190.5 181t74 272.5q0 150 -74 269t-191.5 181t-253.5 62q-95 0 -187 -37.5t-164 -103.5t-116.5 -164.5t-44.5 -211.5zM260 1100h82l217 170l219 -170h82l-207 307h-184zM344 336q-8 159 0 305 q4 110 76 184t160 74q102 0 164.5 -57t68.5 -172q8 -160 0 -314q-7 -112 -75.5 -187t-159.5 -75q-222 0 -234 242z" />
<glyph unicode="&#xf5;" horiz-adv-x="1153" d="M61 487q0 -117 44 -215.5t116.5 -161.5t164 -98t189.5 -35q136 0 252.5 61.5t190.5 181t74 272.5q0 150 -74 269t-191.5 181t-253.5 62q-95 0 -187 -37.5t-164 -103.5t-116.5 -164.5t-44.5 -211.5zM242 1298q4 -90 55.5 -143t130.5 -53q51 0 108 24t111 50t94 28 q43 1 65 -18.5t38 -57.5l55 43q-4 87 -56 141t-130 54q-57 0 -155.5 -50t-158.5 -50q-36 0 -66.5 21.5t-37.5 53.5zM344 336q-8 159 0 305q4 110 76 184t160 74q102 0 164.5 -57t68.5 -172q8 -160 0 -314q-7 -112 -75.5 -187t-159.5 -75q-222 0 -234 242z" />
<glyph unicode="&#xf6;" horiz-adv-x="1153" d="M61 487q0 -117 44 -215.5t116.5 -161.5t164 -98t189.5 -35q136 0 252.5 61.5t190.5 181t74 272.5q0 150 -74 269t-191.5 181t-253.5 62q-95 0 -187 -37.5t-164 -103.5t-116.5 -164.5t-44.5 -211.5zM217 1262q0 -54 37.5 -90.5t91.5 -36.5t91.5 36.5t37.5 90.5t-37.5 90.5 t-91.5 36.5t-91.5 -36.5t-37.5 -90.5zM344 336q-8 159 0 305q4 110 76 184t160 74q102 0 164.5 -57t68.5 -172q8 -160 0 -314q-7 -112 -75.5 -187t-159.5 -75q-222 0 -234 242zM643 1262q0 -54 37.5 -90.5t91.5 -36.5t91.5 36.5t37.5 90.5t-37.5 90.5t-91.5 36.5 t-91.5 -36.5t-37.5 -90.5z" />
<glyph unicode="&#xf7;" horiz-adv-x="1298" d="M92 514h1114v152h-1114v-152zM508 190q0 -60 42 -101.5t103 -41.5q63 0 104.5 41.5t41.5 101.5t-41.5 102t-104.5 42q-61 0 -103 -42t-42 -102zM508 995q0 -60 42 -101.5t103 -41.5q63 0 104.5 41.5t41.5 101.5q0 61 -41.5 102.5t-104.5 41.5q-61 0 -103 -42t-42 -102z " />
<glyph unicode="&#xf8;" horiz-adv-x="1157" d="M68 500q0 -213 133 -359l-62 -69l76 -66l59 70q132 -99 304 -99q97 0 188.5 36t163.5 100.5t116 164t44 216.5q0 203 -140 350l58 67l-78 68l-60 -70q-137 92 -290 95q-95 0 -186.5 -35.5t-164 -99t-117 -160t-44.5 -209.5zM344 354q-7 135 2 312q6 122 63.5 179.5 t168.5 57.5q54 0 102 -30.5t84 -84.5l-418 -477zM391 207l418 475l2 -39q8 -148 0 -309q-12 -244 -231 -244q-57 0 -106.5 31.5t-82.5 85.5z" />
<glyph unicode="&#xf9;" horiz-adv-x="1312" d="M47 909h37q19 0 59.5 -47t40.5 -67v-529q0 -108 75.5 -198.5t184.5 -90.5q85 0 197.5 68.5t192.5 161.5l6 -33q18 -83 73 -137.5t136 -54.5q93 0 254 190l-54 55q-69 -69 -94 -69q-20 0 -47 26.5t-27 46.5v750h-391v-72h41q19 0 52.5 -46t33.5 -68v-459 q-49 -66 -127.5 -123t-126.5 -57q-55 0 -84.5 40.5t-29.5 100.5v684h-402v-72zM283 1430l346 -330h78l-142 330h-282z" />
<glyph unicode="&#xfa;" horiz-adv-x="1312" d="M47 909h37q19 0 59.5 -47t40.5 -67v-529q0 -108 75.5 -198.5t184.5 -90.5q85 0 197.5 68.5t192.5 161.5l6 -33q18 -83 73 -137.5t136 -54.5q93 0 254 190l-54 55q-69 -69 -94 -69q-20 0 -47 26.5t-27 46.5v750h-391v-72h41q19 0 52.5 -46t33.5 -68v-459 q-49 -66 -127.5 -123t-126.5 -57q-55 0 -84.5 40.5t-29.5 100.5v684h-402v-72zM551 1100h78l346 330h-283z" />
<glyph unicode="&#xfb;" horiz-adv-x="1312" d="M47 909h37q19 0 59.5 -47t40.5 -67v-529q0 -108 75.5 -198.5t184.5 -90.5q85 0 197.5 68.5t192.5 161.5l6 -33q18 -83 73 -137.5t136 -54.5q93 0 254 190l-54 55q-69 -69 -94 -69q-20 0 -47 26.5t-27 46.5v750h-391v-72h41q19 0 52.5 -46t33.5 -68v-459 q-49 -66 -127.5 -123t-126.5 -57q-55 0 -84.5 40.5t-29.5 100.5v684h-402v-72zM326 1100h82l217 170l219 -170h82l-207 307h-184z" />
<glyph unicode="&#xfc;" horiz-adv-x="1312" d="M47 909h37q19 0 59.5 -47t40.5 -67v-529q0 -108 75.5 -198.5t184.5 -90.5q85 0 197.5 68.5t192.5 161.5l6 -33q18 -83 73 -137.5t136 -54.5q93 0 254 190l-54 55q-69 -69 -94 -69q-20 0 -47 26.5t-27 46.5v750h-391v-72h41q19 0 52.5 -46t33.5 -68v-459 q-49 -66 -127.5 -123t-126.5 -57q-55 0 -84.5 40.5t-29.5 100.5v684h-402v-72zM270 1262q0 -54 37.5 -90.5t91.5 -36.5t91.5 36.5t37.5 90.5t-37.5 90.5t-91.5 36.5t-91.5 -36.5t-37.5 -90.5zM696 1262q0 -54 37.5 -90.5t91.5 -36.5t91.5 36.5t37.5 90.5t-37.5 90.5 t-91.5 36.5t-91.5 -36.5t-37.5 -90.5z" />
<glyph unicode="&#xfd;" horiz-adv-x="1118" d="M10 909h17q16 0 66 -49t63 -74l327 -735l-211 -422l99 -53l233 469l354 746q22 32 63 75t56 43h31v72h-377v-72h41q20 0 45 -44t25 -74l-203 -443h-12l-181 443q0 30 28 74t48 44h41v72h-553v-72zM561 1100h78l346 330h-283z" />
<glyph unicode="&#xfe;" horiz-adv-x="1275" d="M51 1397h35q20 0 63.5 -39.5t43.5 -61.5v-1532q0 -28 -40.5 -71t-60.5 -43h-35v-72h551v72h-49q-20 0 -57 43t-37 71v324q41 -47 103.5 -78.5t131.5 -32.5q94 -2 184 32t161.5 97.5t115 163t43.5 217.5q0 123 -39.5 223.5t-106 164.5t-152.5 97.5t-181 31.5 q-82 -1 -154 -35t-120 -82v692q-30 -11 -121 -41q-155 -48 -279 -78v-63zM459 365q-3 140 0 276q5 114 67 183t164 69q93 0 159 -79.5t71 -190.5q3 -140 0 -277q-5 -116 -60 -184t-155 -68q-93 0 -167.5 81t-78.5 190z" />
<glyph unicode="&#xff;" horiz-adv-x="1118" d="M10 909h17q16 0 66 -49t63 -74l327 -735l-211 -422l99 -53l233 469l354 746q22 32 63 75t56 43h31v72h-377v-72h41q20 0 45 -44t25 -74l-203 -443h-12l-181 443q0 30 28 74t48 44h41v72h-553v-72zM260 1262q0 -54 37.5 -90.5t91.5 -36.5t91.5 36.5t37.5 90.5t-37.5 90.5 t-91.5 36.5t-91.5 -36.5t-37.5 -90.5zM686 1262q0 -54 37.5 -90.5t91.5 -36.5t91.5 36.5t37.5 90.5t-37.5 90.5t-91.5 36.5t-91.5 -36.5t-37.5 -90.5z" />
<glyph unicode="&#x152;" horiz-adv-x="2187" d="M72 743q0 -161 61 -300t166.5 -236t252.5 -152t314 -55h1176l94 487h-82q0 -22 -84 -116.5t-183.5 -181.5t-135.5 -87h-277q-8 0 -21.5 17.5t-13.5 27.5v566h134q24 0 94.5 -66t70.5 -90v-43h86v490h-86v-37q0 -23 -70.5 -88.5t-94.5 -65.5h-134v539q0 11 13.5 26 t23.5 15h303q16 0 78.5 -68.5t119 -145.5t56.5 -96h76v408h-1143q-221 0 -403.5 -99t-286.5 -270.5t-104 -378.5zM420 549q-10 203 0 409q12 200 133 315.5t311 115.5h35q20 0 66.5 -49t46.5 -74v-1037q0 -25 -42.5 -70.5t-66.5 -45.5h-37q-172 0 -303 122t-143 314z" />
<glyph unicode="&#x153;" horiz-adv-x="1800" d="M66 500q0 -116 40 -215t108 -166t158.5 -104.5t190.5 -37.5q106 0 200.5 40.5t162.5 117.5q132 -158 362 -158q159 0 284 98.5t187 268.5h-82q-123 -174 -321 -174q-126 0 -210 92t-89 223l626 52l17 67q0 51 -13.5 104t-45 106.5t-76 95.5t-113 68t-149.5 26 q-236 0 -375 -164q-69 78 -163.5 120t-199.5 44q-95 0 -184.5 -35.5t-159.5 -99t-112.5 -160t-42.5 -209.5zM332 334q-8 160 0 307q4 112 75.5 187t159.5 75q102 0 164 -59t68 -174q9 -161 0 -316q-7 -112 -74.5 -187t-159.5 -75q-221 0 -233 242zM1053 578q-2 59 9 116 t36 106.5t69.5 80t102.5 30.5q55 0 93.5 -29t55.5 -76.5t23.5 -94.5t3.5 -97z" />
<glyph unicode="&#x178;" horiz-adv-x="1470" d="M20 1415h25q22 0 87.5 -68t82.5 -96l354 -626v-426q0 -20 -44.5 -71.5t-61.5 -51.5h-41v-76h616v76h-39q-17 0 -61.5 51.5t-44.5 71.5v426l348 626q12 26 88.5 93t100.5 71h20v76h-489v-76h57q20 0 53.5 -64.5t38.5 -97.5l-272 -493h-11l-264 500q5 33 41 94t55 61h62v76 h-701v-76zM457 1696q0 -54 37.5 -90.5t91.5 -36.5t91.5 36.5t37.5 90.5t-37.5 90.5t-91.5 36.5t-91.5 -36.5t-37.5 -90.5zM883 1696q0 -54 37.5 -90.5t91.5 -36.5t91.5 36.5t37.5 90.5t-37.5 90.5t-91.5 36.5t-91.5 -36.5t-37.5 -90.5z" />
<glyph unicode="&#x2c6;" horiz-adv-x="1042" d="M221 1100h82l217 170l219 -170h82l-207 307h-184z" />
<glyph unicode="&#x2dc;" horiz-adv-x="1179" d="M256 1298q4 -90 55.5 -143t130.5 -53q51 0 108.5 24t111.5 50t94 28q43 1 64.5 -18t37.5 -58l55 43q-4 87 -56 141t-130 54q-48 0 -101.5 -25t-107.5 -50t-104 -25q-36 0 -67 21.5t-38 53.5z" />
<glyph unicode="&#x2000;" horiz-adv-x="959" />
<glyph unicode="&#x2001;" horiz-adv-x="1919" />
<glyph unicode="&#x2002;" horiz-adv-x="959" />
<glyph unicode="&#x2003;" horiz-adv-x="1919" />
<glyph unicode="&#x2004;" horiz-adv-x="639" />
<glyph unicode="&#x2005;" horiz-adv-x="479" />
<glyph unicode="&#x2006;" horiz-adv-x="319" />
<glyph unicode="&#x2007;" horiz-adv-x="319" />
<glyph unicode="&#x2008;" horiz-adv-x="239" />
<glyph unicode="&#x2009;" horiz-adv-x="383" />
<glyph unicode="&#x200a;" horiz-adv-x="106" />
<glyph unicode="&#x2010;" horiz-adv-x="702" d="M51 440h600v236h-600v-236z" />
<glyph unicode="&#x2011;" horiz-adv-x="702" d="M51 440h600v236h-600v-236z" />
<glyph unicode="&#x2012;" horiz-adv-x="702" d="M51 440h600v236h-600v-236z" />
<glyph unicode="&#x2013;" horiz-adv-x="1245" d="M49 489h1147v187h-1147v-187z" />
<glyph unicode="&#x2014;" horiz-adv-x="1802" d="M0 514h1802v162h-1802v-162z" />
<glyph unicode="&#x2018;" horiz-adv-x="528" d="M123 1118q0 -61 45.5 -103t107.5 -42q65 0 107.5 41t42.5 102q0 54 -33.5 93.5t-87.5 50.5h-61q-4 71 72.5 116t170.5 33l-2 80q-50 5 -100.5 -3.5t-97.5 -32.5t-83.5 -60.5t-58.5 -91.5t-22 -121v-62z" />
<glyph unicode="&#x2019;" horiz-adv-x="532" d="M41 1055l2 -80q63 -6 126 10t116.5 52t87 100.5t33.5 146.5v62q0 61 -46 103t-108 42q-65 0 -107.5 -41t-42.5 -102q0 -54 33.5 -93.5t87.5 -50.5h62q4 -71 -73 -116t-171 -33z" />
<glyph unicode="&#x201a;" horiz-adv-x="528" d="M41 -150l2 -79q63 -6 126 10t116.5 52t87 100.5t33.5 146.5v61q0 61 -46 103.5t-108 42.5q-65 0 -107.5 -41.5t-42.5 -102.5q0 -54 33.5 -93t87.5 -50h62q4 -71 -73 -116.5t-171 -33.5z" />
<glyph unicode="&#x201c;" horiz-adv-x="888" d="M123 1122q0 -61 44 -103t105 -42q63 0 105.5 41.5t42.5 101.5q0 53 -32.5 92t-84.5 50h-63q-4 59 53 101.5t137 47.5l-2 80q-60 -2 -113.5 -22t-97 -56.5t-69 -96t-25.5 -134.5v-60zM487 1122q0 -61 45.5 -103t106.5 -42q65 0 106 41t41 102q0 54 -32 93t-86 49h-62 q-4 68 73 113.5t169 33.5l-2 80q-63 6 -125.5 -9.5t-115.5 -51.5t-85.5 -100t-32.5 -146v-60z" />
<glyph unicode="&#x201d;" horiz-adv-x="888" d="M41 1059l2 -80q63 -6 125.5 9.5t115 51.5t85 100t32.5 146v60q0 61 -45 103t-106 42q-65 0 -106.5 -41t-41.5 -102q0 -54 32.5 -92.5t86.5 -49.5h62q4 -68 -73 -113.5t-169 -33.5zM459 1057l2 -80q60 2 113.5 22t97 56.5t69 96t25.5 134.5v60q0 61 -44.5 103t-105.5 42 q-63 0 -105 -41.5t-42 -101.5q0 -53 32.5 -92t84.5 -50h63q4 -59 -53 -101.5t-137 -47.5z" />
<glyph unicode="&#x201e;" horiz-adv-x="888" d="M41 -147l2 -80q63 -6 125.5 9.5t115 51.5t85 100t32.5 146v59q0 61 -45 103.5t-106 42.5q-65 0 -106.5 -41.5t-41.5 -102.5q0 -54 32.5 -92t86.5 -49h62q4 -68 -73 -113.5t-169 -33.5zM459 -150l2 -79q60 2 113.5 22t97 56.5t69 96t25.5 134.5v59q0 61 -44.5 103.5 t-105.5 42.5q-63 0 -105 -42t-42 -102q0 -53 32.5 -91.5t84.5 -49.5h63q4 -59 -53 -102t-137 -48z" />
<glyph unicode="&#x2022;" horiz-adv-x="770" d="M102 815q0 -117 82 -197.5t201 -80.5t201 80.5t82 197.5t-82 198t-201 81t-201 -81t-82 -198z" />
<glyph unicode="&#x2026;" horiz-adv-x="1640" d="M113 162q0 -66 49 -114t117 -48q67 0 116 48t49 114t-49 114t-116 48q-68 0 -117 -48t-49 -114zM717 160q0 -60 42 -102t103 -42q62 0 104 42t42 102t-41.5 101.5t-104.5 41.5q-61 0 -103 -41.5t-42 -101.5zM1270 147q0 -54 37.5 -90.5t91.5 -36.5t91.5 36.5t37.5 90.5 t-37.5 90.5t-91.5 36.5t-91.5 -36.5t-37.5 -90.5z" />
<glyph unicode="&#x202f;" horiz-adv-x="383" />
<glyph unicode="&#x2039;" horiz-adv-x="737" d="M72 578l573 -484v191l-416 346l416 348v186l-573 -483v-104z" />
<glyph unicode="&#x203a;" horiz-adv-x="737" d="M92 96l574 484v104l-574 483v-186l416 -348l-416 -346v-191z" />
<glyph unicode="&#x205f;" horiz-adv-x="479" />
<glyph unicode="&#x20ac;" horiz-adv-x="1425" d="M92 614h109q25 -179 106.5 -323.5t215.5 -230.5t296 -83q98 2 179 25t137 59.5t101.5 91.5t74 109.5t53.5 124.5h-123q-103 -281 -377 -281q-164 0 -266 120.5t-102 336.5v51h491v97h-493v92h424v96h-422v47q0 128 26 221t74 146t107 77.5t133 24.5q67 0 132 -36.5 t111 -89.5t82 -112t54 -105.5t18 -67.5h88v487h-84q-32 -37 -92 -37q-47 0 -150 32t-170 32q-252 0 -418 -171t-204 -448h-111v-96h107v-92h-107v-97z" />
<glyph unicode="&#x2122;" horiz-adv-x="2025" d="M41 1149h47q3 4 21 37.5t40 72t46 78.5t43 66.5t26 26.5h72v-660q0 -11 -28 -40.5t-36 -29.5h-41v-59h424v59h-61q-12 0 -33.5 28.5t-21.5 41.5v660h73q6 0 24.5 -26.5t42.5 -66.5t46.5 -78.5t41.5 -72t21 -37.5h48q-1 11 -19 223q-4 82 -6 125l-199 -6h-348l-196 6 q-1 -21 -3.5 -63.5t-3.5 -63.5q-15 -185 -20 -221zM846 641h303v59h-31q-8 0 -34.5 29.5t-26.5 40.5v541l297 -695l293 697v-543q0 -12 -25 -41t-37 -29h-29v-59h386v59h-39q-12 0 -37 29t-25 41v594q0 12 26.5 41t37.5 29h39v57h-310l-219 -535l-223 535h-303v-57h22 q8 0 35 -28.5t27 -41.5v-594q0 -12 -25.5 -41t-34.5 -29h-67v-59z" />
<glyph unicode="&#xe000;" horiz-adv-x="983" d="M0 0v983h983v-983h-983z" />
<glyph unicode="&#xfb02;" horiz-adv-x="1275" d="M51 877h92q12 0 36 -28.5t24 -45.5v-617q0 -28 -41.5 -70t-63.5 -42h-39v-74h531v74h-17q-21 0 -64.5 42.5t-43.5 69.5v691h344v-689q0 -28 -43.5 -71t-63.5 -43h-16v-74h528v74h-47q-19 0 -58.5 45t-39.5 69v1391q-15 -6 -98 -39q-116 -42 -240 -76q-12 49 -53.5 81 t-99.5 32q-106 0 -192.5 -66.5t-133.5 -174t-47 -230.5l-2 -125h-152v-104zM344 1290q0 33 25 71.5t47 53.5h20q0 -47 35.5 -85.5t85.5 -49.5h57q99 24 117 113q25 -16 52.5 -46.5t27.5 -50.5v-315h-346v72q0 33 -19 65.5t-41.5 54t-41.5 53t-19 64.5z" />
</font>
</defs>
</svg>
