<?xml version="1.0" encoding="utf-8"?>
<!-- Generator: Adobe Illustrator 17.0.2, SVG Export Plug-In . SVG Version: 6.00 Build 0)  -->
<!DOCTYPE svg PUBLIC "-//W3C//DTD SVG 1.1//EN" "http://www.w3.org/Graphics/SVG/1.1/DTD/svg11.dtd">
<svg version="1.1" id="Layer_1" xmlns="http://www.w3.org/2000/svg" xmlns:xlink="http://www.w3.org/1999/xlink" x="0px" y="0px"
	 width="100px" height="85.602px" viewBox="0 0 100 85.602" enable-background="new 0 0 100 85.602" xml:space="preserve">
<path fill="#AF382F" d="M58.869,54.782v-2.307h0.577V28.9v-1.153V9.803h-0.577v-1.73h-0.011l0.13-1.687
	c0.001,0.002-0.031-0.037-0.03-0.035c0.085-0.183,0.08-0.363,0.08-0.554c0-0.216-0.066-0.423-0.174-0.63
	c0.253-0.105,0.39-0.332,0.39-0.735C59.254,1.984,54.219,0,48.009,0S36.764,1.985,36.764,4.433c0,0.49,0.208,0.723,0.585,0.788
	c-0.092,0.191-0.152,0.386-0.152,0.584c0,0.191,0.058,0.422,0.144,0.605c0.001-0.002,0.003-0.022,0.003-0.024l0.161,1.686h0.027
	v1.73h-0.577v42.673h0.577v2.307h-1.153v1.153h23.643v-1.153H58.869z M42.146,21.912v5.767h-1.73v-5.767H42.146z M40.416,20.759
	v-5.767h1.73v5.767H40.416z M42.146,28.832v5.767h-1.73v-5.767H42.146z M42.146,35.752v5.767h-1.73v-5.767H42.146z M42.146,42.672
	v5.767h-1.73v-5.767H42.146z M47.336,21.912v5.767h-4.037v-5.767H47.336z M43.299,20.759v-5.767h4.037v5.767H43.299z M47.336,28.832
	v5.767h-4.037v-5.767H47.336z M47.336,35.752v5.767h-4.037v-5.767H47.336z M47.336,42.672v5.767h-4.037v-5.767H47.336z
	 M52.526,21.912v5.767h-4.037v-5.767H52.526z M48.489,20.759v-5.767h4.037v5.767H48.489z M52.526,28.832v5.767h-4.037v-5.767H52.526
	z M52.526,35.752v5.767h-4.037v-5.767H52.526z M52.526,42.672v5.767h-4.037v-5.767H52.526z M55.986,21.912v5.767h-2.307v-5.767
	H55.986z M53.679,20.759v-5.767h2.307v5.767H53.679z M55.986,28.832v5.767h-2.307v-5.767H55.986z M55.986,35.752v5.767h-2.307
	v-5.767H55.986z M55.986,42.672v5.767h-2.307v-5.767H55.986z M48.093,4.752c0.378,0,0.685,0.307,0.685,0.685
	s-0.306,0.685-0.685,0.685c-0.379,0-0.685-0.307-0.685-0.685S47.714,4.752,48.093,4.752z M40.416,8.073h15.57v2.307h-15.57V8.073z
	 M37.533,11.533h21.336v0.577H37.533V11.533z M37.341,28.948c0-0.637,0.517-1.153,1.153-1.153c0.637,0,1.153,0.516,1.153,1.153
	c0,0.637-0.517,1.153-1.153,1.153C37.857,30.102,37.341,29.585,37.341,28.948z"/>
<line fill="none" x1="48.201" y1="53.269" x2="48.201" y2="71.602"/>
<line fill="none" stroke="#AF382F" stroke-width="2" stroke-miterlimit="10" x1="48.201" y1="55.935" x2="48.201" y2="80.269"/>
<circle fill="#AF382F" cx="48.201" cy="81.935" r="3.667"/>
</svg>
